#N canvas 217 378 1050 644 12;
#X obj 65 577 outlet;
#X obj 121 579 outlet;
#X text 64 604 pitch;
#X text 116 604 velocity;
#N canvas 0 22 450 278 (subpatch) 0;
#X array \$0-velocities 2 float 2;
#X coords 0 127 2 0 100 64 1 0 0;
#X restore 579 409 graph;
#X obj 57 27 inlet;
#X obj 265 55 inlet;
#X obj 434 61 inlet;
#X text 260 33 pitch list;
#X obj 57 252 f;
#X obj 89 252 + 1;
#X obj 33 309 mod 4;
#X floatatom 33 433 5 0 0 0 - - - 0;
#X obj 297 157 list length;
#X floatatom 297 181 5 0 0 0 - - - 0;
#X obj 265 125 t l l;
#X obj 297 206 array size \$0-pitches;
#X obj 466 116 list length;
#X floatatom 466 140 5 0 0 0 - - - 0;
#X obj 434 86 t l l;
#X obj 466 166 array size \$0-velocities;
#X floatatom 139 358 5 0 0 0 - - - 0;
#X floatatom 139 469 5 0 0 0 - - - 0;
#X obj 33 462 sel 0;
#X text 78 461 rest;
#X obj 121 553 f;
#X obj 65 490 t f b;
#X obj 722 49 inlet;
#X obj 103 27 r \$0-del;
#X obj 723 223 s \$0-del;
#X floatatom 722 102 5 0 0 0 - - - 0;
#X obj 57 78 bng 15 50 50 0 empty empty empty 17 7 0 10 #fcfcfc #000000
#000000;
#X obj 57 226 bng 15 50 50 0 empty empty empty 17 7 0 10 #fcfcfc #000000
#000000;
#X obj 815 50 inlet;
#X floatatom 815 79 5 0 0 0 - - - 0;
#X text 810 25 transpose;
#X obj 815 107 s \$0-trans;
#X obj 65 550 + 0;
#X obj 83 523 r \$0-trans;
#X obj 931 50 inlet;
#X obj 931 113 s \$0-reset;
#X obj 350 25 loadbang;
#X text 429 22 velocity list;
#X floatatom 339 87 5 0 0 0 - - - 0;
#X floatatom 388 86 5 0 0 0 - - - 0;
#N canvas 0 22 450 278 (subpatch) 0;
#X array \$0-pitches 8 float 2;
#X coords 0 127 8 0 100 64 1 0 0;
#X restore 438 408 graph;
#X obj 434 249 array set \$0-velocities;
#X obj 265 250 array set \$0-pitches;
#N canvas 0 22 450 278 (subpatch) 0;
#X array \$0-durations 2 float 2;
#X coords 0 16 2 0 100 64 1 0 0;
#X restore 727 409 graph;
#X text 571 29 duration list;
#X obj 642 64 inlet;
#X obj 614 236 list length;
#X floatatom 614 261 5 0 0 0 - - - 0;
#X obj 582 192 t l l;
#X floatatom 582 100 5 0 0 0 - - - 0;
#X obj 614 287 array size \$0-durations;
#X obj 582 323 array set \$0-durations;
#X obj 138 319 mod 4;
#X floatatom 206 346 5 0 0 0 - - - 0;
#X floatatom 203 547 5 0 0 0 - - - 0;
#X obj 206 320 mod 4;
#X floatatom 802 223 5 0 0 0 - - - 0;
#X obj 283 579 outlet;
#X text 278 605 beat cnt;
#X obj 339 61 f \$1;
#X obj 388 61 f \$2;
#X obj 582 71 f \$3;
#X floatatom 33 339 5 0 0 0 - - - 0;
#X obj 203 579 outlet;
#X text 197 603 duration;
#X obj 736 77 f \$4;
#X text 926 22 restart;
#X obj 862 76 f \$5;
#X obj 582 127 expr if($f1 == 0 \, 1 \, $f1);
#X obj 57 279 t f f f f;
#X text 50 7 bang;
#X obj 206 465 array get \$0-durations \$1 1;
#X obj 139 441 array get \$0-velocities \$1 1;
#X obj 33 403 array get \$0-pitches \$1 1;
#X floatatom 12 278 5 0 0 0 - - - 0;
#X obj 57 102 f;
#X obj 91 102 + 1;
#X floatatom 57 131 5 0 0 0 - - - 0;
#X msg 74 185 1;
#X obj 723 163 max 0;
#X text 713 22 Delay ms;
#X obj 78 222 r \$0-reset;
#X msg 931 82 0;
#X obj 57 159 sel 4;
#X obj 142 74 f;
#X obj 170 28 r \$0-reset;
#X obj 142 52 bng 15 250 50 0 empty empty empty 17 7 0 10 #fcfcfc #000000
#000000;
#X obj 57 53 pipe 0;
#X obj 362 579 outlet;
#X obj 362 543 f;
#X obj 396 543 + 1;
#X msg 380 513 0;
#X obj 206 514 max 1;
#X obj 206 490 int;
#X text 359 611 pulse cnt;
#X connect 5 0 92 0;
#X connect 6 0 15 0;
#X connect 7 0 19 0;
#X connect 9 0 10 0;
#X connect 9 0 74 0;
#X connect 9 0 79 0;
#X connect 10 0 9 1;
#X connect 11 0 67 0;
#X connect 12 0 23 0;
#X connect 13 0 14 0;
#X connect 14 0 16 0;
#X connect 14 0 11 1;
#X connect 15 0 47 0;
#X connect 15 1 13 0;
#X connect 17 0 18 0;
#X connect 18 0 20 0;
#X connect 18 0 57 1;
#X connect 19 0 46 0;
#X connect 19 1 17 0;
#X connect 21 0 77 0;
#X connect 22 0 25 0;
#X connect 23 1 26 0;
#X connect 25 0 1 0;
#X connect 26 0 37 0;
#X connect 27 0 30 0;
#X connect 28 0 92 1;
#X connect 30 0 84 0;
#X connect 31 0 80 0;
#X connect 31 0 94 0;
#X connect 32 0 9 0;
#X connect 33 0 34 0;
#X connect 34 0 36 0;
#X connect 37 0 0 0;
#X connect 38 0 37 1;
#X connect 39 0 87 0;
#X connect 41 0 64 0;
#X connect 41 0 65 0;
#X connect 41 0 66 0;
#X connect 41 0 70 0;
#X connect 41 0 72 0;
#X connect 43 0 15 0;
#X connect 44 0 19 0;
#X connect 50 0 53 0;
#X connect 51 0 52 0;
#X connect 52 0 55 0;
#X connect 52 0 60 1;
#X connect 53 0 56 0;
#X connect 53 1 51 0;
#X connect 54 0 73 0;
#X connect 57 0 21 0;
#X connect 58 0 76 0;
#X connect 59 0 68 0;
#X connect 59 0 88 1;
#X connect 59 0 89 1;
#X connect 60 0 58 0;
#X connect 64 0 43 0;
#X connect 65 0 44 0;
#X connect 66 0 54 0;
#X connect 67 0 78 0;
#X connect 70 0 30 0;
#X connect 72 0 34 0;
#X connect 73 0 53 0;
#X connect 74 0 11 0;
#X connect 74 1 57 0;
#X connect 74 2 60 0;
#X connect 74 3 62 0;
#X connect 76 0 98 0;
#X connect 77 0 22 0;
#X connect 78 0 12 0;
#X connect 80 0 81 0;
#X connect 80 0 82 0;
#X connect 81 0 80 1;
#X connect 82 0 88 0;
#X connect 83 0 80 1;
#X connect 84 0 29 0;
#X connect 84 0 61 0;
#X connect 86 0 9 1;
#X connect 87 0 40 0;
#X connect 88 0 83 0;
#X connect 88 0 32 0;
#X connect 89 0 80 1;
#X connect 90 0 91 0;
#X connect 91 0 89 0;
#X connect 91 0 96 0;
#X connect 92 0 31 0;
#X connect 94 0 95 0;
#X connect 94 0 93 0;
#X connect 95 0 94 1;
#X connect 96 0 94 1;
#X connect 97 0 59 0;
#X connect 98 0 97 0;
