#N canvas 624 557 1219 614 12;
#X obj 41 498 outlet;
#X obj 167 479 outlet;
#X text 40 525 pitch;
#X text 162 504 velocity;
#N canvas 0 22 450 278 (subpatch) 0;
#X array \$0-velocities 1 float 2;
#X coords 0 127 1 0 100 64 1 0 0;
#X restore 634 397 graph;
#X obj 57 20 inlet;
#X obj 333 48 inlet;
#X obj 502 54 inlet;
#X text 328 26 pitch list;
#X obj 57 186 f;
#X obj 89 186 + 1;
#X obj 33 243 mod 4;
#X obj 33 337 array get \$0-pitches \$1;
#X floatatom 33 367 5 0 0 0 - - -;
#X obj 365 150 list length;
#X floatatom 365 174 5 0 0 0 - - -;
#X obj 333 118 t l l;
#X obj 365 199 array size \$0-pitches;
#X obj 534 109 list length;
#X floatatom 534 133 5 0 0 0 - - -;
#X obj 502 79 t l l;
#X obj 534 159 array size \$0-velocities;
#X floatatom 132 292 5 0 0 0 - - -;
#X floatatom 132 403 5 0 0 0 - - -;
#X obj 33 396 sel 0;
#X text 85 411 rest;
#X obj 167 453 f;
#X obj 65 429 t f b;
#X obj 790 42 inlet;
#X text 781 15 Delay;
#X obj 148 15 r \$0-del;
#X obj 790 216 s \$0-del;
#X floatatom 790 95 5 0 0 0 - - -;
#X obj 35 61 bng 15 50 50 0 empty empty empty 17 7 0 10 -262144 -1
-1;
#X obj 57 160 bng 15 50 50 0 empty empty empty 17 7 0 10 -262144 -1
-1;
#X obj 57 46 delay 0;
#X obj 883 43 inlet;
#X floatatom 883 72 5 0 0 0 - - -;
#X text 878 18 transpose;
#X obj 883 100 s \$0-trans;
#X obj 41 471 + 0;
#X obj 73 468 r \$0-trans;
#X obj 132 375 array get \$0-velocities \$1;
#X obj 999 43 inlet;
#X msg 999 77 0;
#X obj 999 106 s \$0-reset;
#X obj 145 46 r \$0-reset;
#X obj 418 18 loadbang;
#X text 497 15 velocity list;
#X floatatom 405 81 5 0 0 0 - - -;
#X floatatom 457 85 5 0 0 0 - - -;
#X msg 356 233 80 0;
#N canvas 0 22 450 278 (subpatch) 0;
#X array \$0-pitches 1 float 2;
#X coords 0 127 1 0 100 64 1 0 0;
#X restore 506 401 graph;
#X obj 502 242 array set \$0-velocities;
#X obj 333 269 array set \$0-pitches;
#N canvas 0 22 450 278 (subpatch) 0;
#X array \$0-durations 1 float 2;
#X coords 0 16 1 0 100 64 1 0 0;
#X restore 797 394 graph;
#X text 639 22 duration list;
#X obj 710 57 inlet;
#X obj 682 229 list length;
#X floatatom 682 254 5 0 0 0 - - -;
#X obj 650 185 t l l;
#X floatatom 650 93 5 0 0 0 - - -;
#X obj 682 280 array size \$0-durations;
#X obj 650 316 array set \$0-durations;
#X obj 132 241 mod 4;
#X floatatom 206 274 5 0 0 0 - - -;
#X floatatom 242 437 5 0 0 0 - - -;
#X obj 207 249 mod 4;
#X obj 206 399 array get \$0-durations \$1;
#X obj 969 134 r bpm;
#X obj 790 187 expr $f1 * 60 / $f2 * 1000;
#X floatatom 870 214 5 0 0 0 - - -;
#X obj 331 472 outlet;
#X text 335 505 beat cnt;
#X obj 407 54 f \$1;
#X obj 456 60 f \$2;
#X obj 650 64 f \$3;
#X obj 170 74 mod 1;
#X obj 170 103 == 0;
#X floatatom 33 273 5 0 0 0 - - -;
#X obj 242 479 outlet;
#X text 242 509 duration;
#X obj 804 70 f \$4;
#X text 994 15 restart;
#X obj 930 69 f \$5;
#X obj 650 120 expr if($f1 == 0 \, 1 \, $f1);
#X obj 57 213 t f f f f;
#X obj 57 128 spigot 1;
#X obj 57 75 f;
#X obj 98 76 + 1;
#X obj 57 100 t f f;
#X floatatom 162 132 5 0 0 0 - - -;
#X text 50 0 bang;
#X text 394 234 testing;
#X obj 790 151 sel 0;
#X connect 5 0 33 0;
#X connect 5 0 35 0;
#X connect 6 0 16 0;
#X connect 7 0 20 0;
#X connect 9 0 10 0;
#X connect 9 0 86 0;
#X connect 10 0 9 1;
#X connect 11 0 79 0;
#X connect 12 0 13 0;
#X connect 13 0 24 0;
#X connect 14 0 15 0;
#X connect 15 0 17 0;
#X connect 15 0 11 1;
#X connect 16 0 54 0;
#X connect 16 1 14 0;
#X connect 18 0 19 0;
#X connect 19 0 21 0;
#X connect 19 0 64 1;
#X connect 20 0 53 0;
#X connect 20 1 18 0;
#X connect 22 0 42 0;
#X connect 23 0 26 1;
#X connect 24 1 27 0;
#X connect 26 0 1 0;
#X connect 27 0 40 0;
#X connect 27 1 26 0;
#X connect 28 0 32 0;
#X connect 30 0 35 1;
#X connect 32 0 94 0;
#X connect 34 0 9 0;
#X connect 35 0 88 0;
#X connect 36 0 37 0;
#X connect 37 0 39 0;
#X connect 40 0 0 0;
#X connect 41 0 40 1;
#X connect 42 0 23 0;
#X connect 43 0 44 0;
#X connect 44 0 45 0;
#X connect 46 0 9 1;
#X connect 46 0 88 1;
#X connect 47 0 74 0;
#X connect 47 0 75 0;
#X connect 47 0 76 0;
#X connect 47 0 82 0;
#X connect 47 0 84 0;
#X connect 49 0 16 0;
#X connect 50 0 20 0;
#X connect 51 0 54 0;
#X connect 57 0 60 0;
#X connect 58 0 59 0;
#X connect 59 0 62 0;
#X connect 59 0 67 1;
#X connect 60 0 63 0;
#X connect 60 1 58 0;
#X connect 61 0 85 0;
#X connect 64 0 22 0;
#X connect 65 0 68 0;
#X connect 66 0 77 1;
#X connect 66 0 80 0;
#X connect 67 0 65 0;
#X connect 68 0 66 0;
#X connect 69 0 70 1;
#X connect 70 0 31 0;
#X connect 70 0 71 0;
#X connect 74 0 49 0;
#X connect 75 0 50 0;
#X connect 76 0 61 0;
#X connect 77 0 78 0;
#X connect 78 0 87 1;
#X connect 78 0 91 0;
#X connect 79 0 12 0;
#X connect 82 0 32 0;
#X connect 84 0 37 0;
#X connect 85 0 60 0;
#X connect 86 0 11 0;
#X connect 86 1 64 0;
#X connect 86 2 67 0;
#X connect 86 2 72 0;
#X connect 87 0 34 0;
#X connect 88 0 89 0;
#X connect 88 0 90 0;
#X connect 89 0 88 1;
#X connect 90 0 87 0;
#X connect 90 1 77 0;
#X connect 94 1 70 0;
