#N canvas 60 387 307 319 12;
#X floatatom 87 93 5 30 90 2 data - - 0;
#X floatatom 87 164 5 0 0 0 - - - 0;
#X floatatom 161 102 5 0 0 2 beats - - 0;
#X floatatom 124 66 5 0 0 2 BPM - - 0;
#X obj 87 133 defer 120 4;
#X obj 34 224 osc~;
#X obj 34 195 mtof;
#X obj 33 259 out 0.1;
#X floatatom 78 225 5 0 1 2 Vol - - 0;
#X text 22 10 Schedule an event into the future;
#X text 22 29 by delaying it by a number of beats.;
#X connect 0 0 4 0;
#X connect 0 0 6 0;
#X connect 1 0 6 0;
#X connect 2 0 4 2;
#X connect 3 0 4 1;
#X connect 4 0 1 0;
#X connect 5 0 7 0;
#X connect 5 0 7 1;
#X connect 6 0 5 0;
#X connect 8 0 7 2;
