#N canvas 1322 610 249 299 12;
#X obj 32 62 t b f;
#X obj 33 132 f;
#X obj 33 156 pack;
#X obj 32 30 inlet;
#X obj 115 82 inlet;
#X obj 33 184 route 0 1 2 3;
#X obj 33 215 outlet;
#X obj 77 270 outlet;
#X obj 99 214 outlet;
#X obj 114 53 f \$1;
#X obj 114 28 loadbang;
#X text 149 54 Init route;
#X text 120 104 Next route val;
#X obj 55 243 outlet;
#X obj 50 109 clip 0 3;
#X text 25 7 Number Data in;
#X connect 0 0 1 0;
#X connect 0 1 2 1;
#X connect 1 0 2 0;
#X connect 2 0 5 0;
#X connect 3 0 0 0;
#X connect 4 0 14 0;
#X connect 5 0 6 0;
#X connect 5 1 13 0;
#X connect 5 2 7 0;
#X connect 5 3 8 0;
#X connect 9 0 14 0;
#X connect 10 0 9 0;
#X connect 14 0 1 1;
