#N canvas 1100 540 1060 420 12;
#X obj 60 263 osc~;
#X obj 60 236 vline~;
#X obj 57 145 bng 15 250 50 0 empty empty empty 17 7 0 10 #fcfcfc #000000
#000000;
#X obj 60 325 *~;
#X obj 129 263 vline~;
#X text 60 8 kick;
#X obj 13 8 inlet;
#X obj 346 376 outlet~;
#X obj 129 102 * 10;
#X obj 129 129 *;
#X obj 129 152 / 100;
#X obj 129 176 max 0.1;
#X obj 200 102 loadbang;
#X obj 200 151 f \$1;
#X obj 200 126 t b b;
#X obj 200 176 sel 0;
#X msg 247 171 1;
#X floatatom 232 203 5 0 0 0 - - - 0;
#X obj 88 167 f;
#X obj 345 311 *~;
#X obj 407 280 vline~;
#X obj 309 121 noise~;
#X obj 345 278 *~ 0.5;
#X obj 345 255 osc~ 180;
#X obj 309 218 hip~ 1000;
#X text 315 16 Snare;
#X obj 371 15 inlet;
#X obj 407 197 max 0;
#X obj 407 118 * 10;
#X obj 407 145 *;
#X obj 407 168 / 100;
#X obj 309 194 lop~ 3000;
#X obj 348 168 + 500;
#X obj 348 144 * 3000;
#X obj 371 99 bng 15 250 50 0 empty empty empty 17 7 0 10 #fcfcfc #000000
#000000;
#X obj 372 119 f;
#X obj 465 95 loadbang;
#X obj 465 119 t b b;
#X obj 465 169 sel 0;
#X floatatom 497 196 5 0 0 0 - - - 0;
#X obj 465 144 f \$2;
#X obj 588 304 *~;
#X obj 644 273 vline~;
#X obj 563 225 noise~;
#X obj 563 248 hip~ 20000;
#X obj 563 271 hip~ 10000;
#X obj 604 25 inlet;
#X obj 644 201 max 0;
#X obj 644 125 * 10;
#X obj 644 152 *;
#X obj 644 175 / 100;
#X obj 604 115 bng 15 250 50 0 empty empty empty 17 7 0 10 #fcfcfc
#000000 #000000;
#X obj 604 167 f;
#X obj 709 108 loadbang;
#X obj 709 132 t b b;
#X obj 709 182 sel 0;
#X floatatom 741 209 5 0 0 0 - - - 0;
#X obj 709 157 f \$3;
#X msg 644 249 \$1 \, 0 100 1;
#X obj 407 308 *~;
#X obj 800 93 inlet;
#X obj 106 74 r \$0-kvol;
#X obj 800 150 s \$0-kvol;
#X obj 885 92 inlet;
#X obj 976 92 inlet;
#X obj 885 149 s \$0-svol;
#X obj 976 149 s \$0-hvol;
#X obj 420 73 r \$0-svol;
#X text 602 4 Hats closed;
#X obj 645 86 r \$0-hvol;
#X msg 60 206 150 1 \, 50 70 5;
#X obj 128 290 *~;
#X msg 129 237 \$1 1 \, 0 300 1;
#X obj 13 81 sel 36 38 42;
#X msg 407 255 \$1 1 \, 0 260 1;
#X obj 13 56 int;
#X obj 800 122 clip 0 1;
#X obj 885 121 clip 0 1;
#X obj 976 120 clip 0 1;
#X text 973 69 H level 0-1;
#X text 882 69 S level 0-1;
#X text 797 70 K level 0-1;
#X obj 13 32 + 0.5;
#X msg 512 164 0.9;
#X msg 756 177 0.9;
#X obj 588 333 *~ 1.7;
#X connect 0 0 3 0;
#X connect 1 0 0 0;
#X connect 2 0 70 0;
#X connect 2 0 18 0;
#X connect 3 0 7 0;
#X connect 4 0 71 1;
#X connect 4 0 71 0;
#X connect 6 0 82 0;
#X connect 8 0 9 1;
#X connect 8 0 9 0;
#X connect 9 0 10 0;
#X connect 10 0 11 0;
#X connect 11 0 72 0;
#X connect 12 0 14 0;
#X connect 13 0 15 0;
#X connect 14 0 13 0;
#X connect 14 1 16 0;
#X connect 15 1 17 0;
#X connect 16 0 17 0;
#X connect 17 0 18 1;
#X connect 18 0 8 0;
#X connect 19 0 7 0;
#X connect 20 0 59 1;
#X connect 20 0 59 0;
#X connect 21 0 31 0;
#X connect 22 0 19 0;
#X connect 23 0 22 0;
#X connect 24 0 19 0;
#X connect 26 0 34 0;
#X connect 27 0 33 0;
#X connect 27 0 74 0;
#X connect 28 0 29 1;
#X connect 28 0 29 0;
#X connect 29 0 30 0;
#X connect 30 0 27 0;
#X connect 31 0 24 0;
#X connect 32 0 31 1;
#X connect 33 0 32 0;
#X connect 34 0 35 0;
#X connect 35 0 28 0;
#X connect 36 0 37 0;
#X connect 37 0 40 0;
#X connect 37 1 83 0;
#X connect 38 1 39 0;
#X connect 39 0 35 1;
#X connect 40 0 38 0;
#X connect 41 0 85 0;
#X connect 42 0 41 1;
#X connect 43 0 44 0;
#X connect 44 0 45 0;
#X connect 45 0 41 0;
#X connect 46 0 51 0;
#X connect 47 0 58 0;
#X connect 48 0 49 1;
#X connect 48 0 49 0;
#X connect 49 0 50 0;
#X connect 50 0 47 0;
#X connect 51 0 52 0;
#X connect 52 0 48 0;
#X connect 53 0 54 0;
#X connect 54 0 57 0;
#X connect 54 1 84 0;
#X connect 55 1 56 0;
#X connect 56 0 52 1;
#X connect 57 0 55 0;
#X connect 58 0 42 0;
#X connect 59 0 19 1;
#X connect 60 0 76 0;
#X connect 61 0 18 1;
#X connect 63 0 77 0;
#X connect 64 0 78 0;
#X connect 67 0 35 1;
#X connect 69 0 52 1;
#X connect 70 0 1 0;
#X connect 71 0 3 1;
#X connect 72 0 4 0;
#X connect 73 0 2 0;
#X connect 73 1 34 0;
#X connect 73 2 51 0;
#X connect 73 3 2 0;
#X connect 74 0 20 0;
#X connect 75 0 73 0;
#X connect 76 0 62 0;
#X connect 77 0 65 0;
#X connect 78 0 66 0;
#X connect 82 0 75 0;
#X connect 83 0 39 0;
#X connect 84 0 56 0;
#X connect 85 0 7 0;
