#N canvas 1195 761 307 258 12;
#X obj 62 32 bng 15 250 50 0 empty empty Kick 17 7 0 10 #fcfcfc #000000
#000000;
#X obj 74 54 bng 15 250 50 0 empty empty Snare 17 7 0 10 #fcfcfc #000000
#000000;
#X obj 86 76 bng 15 250 50 0 empty empty Hats 17 7 0 10 #fcfcfc #000000
#000000;
#X floatatom 98 97 5 0 127 1 Kick_vol_(0-127) - - 0;
#X floatatom 110 119 5 0 127 1 Snare_vol_(0-127) - - 0;
#X floatatom 122 141 5 0 127 1 Hats_vol_(0-127) - - 0;
#X text 51 7 Simple synthesized drum kit;
#X obj 63 210 out~ 0.1;
#X obj 62 167 drums~, f 9;
#X connect 0 0 8 0;
#X connect 1 0 8 1;
#X connect 2 0 8 2;
#X connect 3 0 8 3;
#X connect 4 0 8 4;
#X connect 5 0 8 5;
#X connect 8 0 7 0;
#X connect 8 0 7 1;
