#N canvas 861 814 1049 358 12;
#X obj 50 213 osc~;
#X obj 50 186 vline~;
#X obj 50 60 bng 15 250 50 0 empty empty empty 17 7 0 10 -262144 -1
-1;
#X obj 50 275 *~;
#X obj 119 213 vline~;
#X text 54 11 kick;
#X obj 50 30 inlet;
#X obj 335 312 outlet~;
#X obj 119 52 * 10;
#X obj 119 79 *;
#X obj 119 102 / 100;
#X obj 119 126 max 0.1;
#X obj 190 52 loadbang;
#X obj 190 101 f \$1;
#X obj 190 76 t b b;
#X obj 190 126 sel 0;
#X msg 237 121 1;
#X floatatom 222 153 5 0 0 0 - - -;
#X obj 75 99 f;
#X obj 335 261 *~;
#X obj 397 230 vline~;
#X obj 299 71 noise~;
#X obj 335 228 *~ 0.5;
#X obj 335 205 osc~ 180;
#X obj 299 168 hip~ 1000;
#X text 307 25 Snare;
#X obj 361 24 inlet;
#X obj 397 147 max 0;
#X obj 397 68 * 10;
#X obj 397 95 *;
#X obj 397 118 / 100;
#X obj 299 144 lop~ 3000;
#X obj 338 118 + 500;
#X obj 338 94 * 3000;
#X obj 361 49 bng 15 250 50 0 empty empty empty 17 7 0 10 -262144 -1
-1;
#X obj 362 69 f;
#X obj 455 45 loadbang;
#X obj 455 69 t b b;
#X obj 455 119 sel 0;
#X floatatom 487 146 5 0 0 0 - - -;
#X obj 455 94 f \$2;
#X obj 578 254 *~;
#X obj 634 223 vline~;
#X obj 553 175 noise~;
#X obj 553 198 hip~ 20000;
#X obj 553 221 hip~ 10000;
#X obj 594 36 inlet;
#X obj 634 151 max 0;
#X obj 634 75 * 10;
#X obj 634 102 *;
#X obj 634 125 / 100;
#X obj 594 65 bng 15 250 50 0 empty empty empty 17 7 0 10 -262144 -1
-1;
#X obj 594 117 f;
#X obj 699 58 loadbang;
#X obj 699 82 t b b;
#X obj 699 132 sel 0;
#X floatatom 731 159 5 0 0 0 - - -;
#X obj 699 107 f \$3;
#X msg 634 199 \$1 \, 0 100 1;
#X obj 397 258 *~;
#X msg 502 114 0.9;
#X msg 746 127 0.9;
#X obj 790 43 inlet;
#X obj 95 29 r \$0-kvol;
#X obj 790 100 s \$0-kvol;
#X obj 875 42 inlet;
#X obj 966 42 inlet;
#X obj 875 99 s \$0-svol;
#X obj 966 99 s \$0-hvol;
#X obj 410 23 r \$0-svol;
#X text 592 15 Hats closed;
#X obj 635 36 r \$0-hvol;
#X msg 397 205 \$1 1 \, 0 280 1;
#X text 872 19 S wel 0-127;
#X text 787 20 K vel 0-127;
#X text 963 19 H vel 0-227;
#X obj 790 72 / 127;
#X obj 875 71 / 127;
#X obj 966 70 / 127;
#X msg 50 156 150 1 \, 50 70 5;
#X obj 118 240 *~;
#X msg 119 187 \$1 1 \, 0 300 1;
#X connect 0 0 3 0;
#X connect 1 0 0 0;
#X connect 2 0 79 0;
#X connect 2 0 18 0;
#X connect 3 0 7 0;
#X connect 4 0 80 1;
#X connect 4 0 80 0;
#X connect 6 0 2 0;
#X connect 8 0 9 1;
#X connect 8 0 9 0;
#X connect 9 0 10 0;
#X connect 10 0 11 0;
#X connect 11 0 81 0;
#X connect 12 0 14 0;
#X connect 13 0 15 0;
#X connect 14 0 13 0;
#X connect 14 1 16 0;
#X connect 15 1 17 0;
#X connect 16 0 17 0;
#X connect 17 0 18 1;
#X connect 18 0 8 0;
#X connect 19 0 7 0;
#X connect 20 0 59 1;
#X connect 20 0 59 0;
#X connect 21 0 31 0;
#X connect 22 0 19 0;
#X connect 23 0 22 0;
#X connect 24 0 19 0;
#X connect 26 0 34 0;
#X connect 27 0 33 0;
#X connect 27 0 72 0;
#X connect 28 0 29 1;
#X connect 28 0 29 0;
#X connect 29 0 30 0;
#X connect 30 0 27 0;
#X connect 31 0 24 0;
#X connect 32 0 31 1;
#X connect 33 0 32 0;
#X connect 34 0 35 0;
#X connect 35 0 28 0;
#X connect 36 0 37 0;
#X connect 37 0 40 0;
#X connect 37 1 60 0;
#X connect 38 1 39 0;
#X connect 39 0 35 1;
#X connect 40 0 38 0;
#X connect 41 0 7 0;
#X connect 42 0 41 1;
#X connect 43 0 44 0;
#X connect 44 0 45 0;
#X connect 45 0 41 0;
#X connect 46 0 51 0;
#X connect 47 0 58 0;
#X connect 48 0 49 1;
#X connect 48 0 49 0;
#X connect 49 0 50 0;
#X connect 50 0 47 0;
#X connect 51 0 52 0;
#X connect 52 0 48 0;
#X connect 53 0 54 0;
#X connect 54 0 57 0;
#X connect 54 1 61 0;
#X connect 55 1 56 0;
#X connect 56 0 52 1;
#X connect 57 0 55 0;
#X connect 58 0 42 0;
#X connect 59 0 19 1;
#X connect 60 0 39 0;
#X connect 61 0 56 0;
#X connect 62 0 76 0;
#X connect 63 0 18 1;
#X connect 65 0 77 0;
#X connect 66 0 78 0;
#X connect 69 0 35 1;
#X connect 71 0 52 1;
#X connect 72 0 20 0;
#X connect 76 0 64 0;
#X connect 77 0 67 0;
#X connect 78 0 68 0;
#X connect 79 0 1 0;
#X connect 80 0 3 1;
#X connect 81 0 4 0;
