#N canvas 1094 779 455 341 12;
#X text 134 5 Delay Time;
#X text 231 6 Delay Level;
#X obj 140 28 inlet;
#X obj 247 33 inlet;
#X text 334 6 delay feedback;
#X obj 40 29 inlet~;
#X text 37 6 audio in;
#X obj 337 29 inlet;
#X obj 41 267 *~ 0.1;
#X obj 117 269 *~ -0.25;
#X obj 41 300 outlet~;
#X obj 41 184 line~;
#X msg 41 158 \$1 100;
#X obj 205 246 * -1;
#X obj 336 126 t b b;
#X obj 336 176 sel 0;
#X floatatom 368 203 5 0 0 0 - - - 0;
#X msg 383 171 0.25;
#X obj 336 151 f \$3;
#X obj 247 61 loadbang;
#X obj 247 85 t b b;
#X obj 247 135 sel 0;
#X floatatom 279 162 5 0 0 0 - - - 0;
#X msg 294 130 0.1;
#X obj 247 110 f \$2;
#X obj 80 239 clip 0 1;
#X obj 140 105 t b b;
#X obj 140 155 sel 0;
#X floatatom 172 182 5 0 0 0 - - - 0;
#X obj 140 130 f \$1;
#X msg 187 150 250;
#X obj 41 210 vd~ \$0-buffer 250;
#X obj 40 57 delwrite~ \$0-buffer 2000;
#X obj 41 130 clip 0 2000;
#X obj 205 214 clip 0 0.95;
#X connect 2 0 33 0;
#X connect 3 0 25 0;
#X connect 5 0 32 0;
#X connect 7 0 34 0;
#X connect 8 0 10 0;
#X connect 9 0 32 0;
#X connect 11 0 31 0;
#X connect 12 0 11 0;
#X connect 13 0 9 1;
#X connect 14 0 18 0;
#X connect 14 1 17 0;
#X connect 15 1 16 0;
#X connect 16 0 34 0;
#X connect 17 0 16 0;
#X connect 18 0 15 0;
#X connect 19 0 20 0;
#X connect 19 0 26 0;
#X connect 19 0 14 0;
#X connect 20 0 24 0;
#X connect 20 1 23 0;
#X connect 21 1 22 0;
#X connect 22 0 25 0;
#X connect 23 0 22 0;
#X connect 24 0 21 0;
#X connect 25 0 8 1;
#X connect 26 0 29 0;
#X connect 26 1 30 0;
#X connect 27 1 28 0;
#X connect 28 0 33 0;
#X connect 29 0 27 0;
#X connect 30 0 28 0;
#X connect 31 0 8 0;
#X connect 31 0 9 0;
#X connect 33 0 12 0;
#X connect 34 0 13 0;
