#N canvas 540 818 782 341 12;
#X text 459 18 Delay Time;
#X text 556 19 Delay Level;
#X obj 465 41 inlet;
#X obj 572 46 inlet;
#X text 659 19 delay feedback;
#X obj 27 29 inlet~;
#X obj 662 42 inlet;
#X obj 41 273 *~ 0.1;
#X obj 117 275 *~ -0.25;
#X obj 27 306 outlet~;
#X obj 41 184 line~;
#X msg 41 158 \$1 100;
#X obj 550 236 * -1;
#X obj 661 139 t b b;
#X obj 661 189 sel 0;
#X floatatom 693 216 5 0 0 0 - - - 0;
#X obj 661 164 f \$3;
#X obj 572 74 loadbang;
#X obj 572 98 t b b;
#X obj 572 148 sel 0;
#X floatatom 604 175 5 0 0 0 - - - 0;
#X obj 572 123 f \$2;
#X obj 80 239 clip 0 1;
#X obj 465 118 t b b;
#X obj 465 168 sel 0;
#X floatatom 497 195 5 0 0 0 - - - 0;
#X obj 465 143 f \$1;
#X msg 512 163 250;
#X obj 41 130 clip 0 2000;
#X obj 551 212 clip 0 0.95;
#X text 37 6 audio in left;
#X obj 231 30 inlet~;
#X obj 243 274 *~ 0.1;
#X obj 319 276 *~ -0.25;
#X obj 232 307 outlet~;
#X obj 243 185 line~;
#X msg 243 159 \$1 100;
#X obj 282 240 clip 0 1;
#X obj 243 131 clip 0 2000;
#X text 239 7 audio in right;
#X obj 40 71 delwrite~ \$0-bufferL 2000;
#X obj 41 210 vd~ \$0-bufferL 250;
#X obj 242 72 delwrite~ \$0-bufferR 2000;
#X obj 243 211 vd~ \$0-bufferR 250;
#X msg 619 143 0.3;
#X msg 708 184 0.35;
#X connect 2 0 28 0;
#X connect 2 0 38 0;
#X connect 3 0 22 0;
#X connect 3 0 37 0;
#X connect 5 0 40 0;
#X connect 5 0 9 0;
#X connect 6 0 29 0;
#X connect 7 0 9 0;
#X connect 8 0 40 0;
#X connect 10 0 41 0;
#X connect 11 0 10 0;
#X connect 12 0 8 1;
#X connect 12 0 33 1;
#X connect 13 0 16 0;
#X connect 13 1 45 0;
#X connect 14 1 15 0;
#X connect 15 0 29 0;
#X connect 16 0 14 0;
#X connect 17 0 18 0;
#X connect 17 0 23 0;
#X connect 17 0 13 0;
#X connect 18 0 21 0;
#X connect 18 1 44 0;
#X connect 19 1 20 0;
#X connect 20 0 22 0;
#X connect 20 0 37 0;
#X connect 21 0 19 0;
#X connect 22 0 7 1;
#X connect 23 0 26 0;
#X connect 23 1 27 0;
#X connect 24 1 25 0;
#X connect 25 0 28 0;
#X connect 25 0 38 0;
#X connect 26 0 24 0;
#X connect 27 0 25 0;
#X connect 28 0 11 0;
#X connect 29 0 12 0;
#X connect 31 0 42 0;
#X connect 31 0 34 0;
#X connect 32 0 34 0;
#X connect 33 0 42 0;
#X connect 35 0 43 0;
#X connect 36 0 35 0;
#X connect 37 0 32 1;
#X connect 38 0 36 0;
#X connect 41 0 7 0;
#X connect 41 0 8 0;
#X connect 43 0 32 0;
#X connect 43 0 33 0;
#X connect 44 0 20 0;
#X connect 45 0 15 0;
