#N canvas 1679 361 631 572 12;
#X floatatom 177 195 5 0 100 2 Bar_len - - 0;
#X obj 54 287 +;
#X floatatom 295 196 5 0 100 2 Hits_per_bar - - 0;
#X floatatom 391 197 5 0 100 2 Rotate - - 0;
#X obj 54 422 select 1;
#X obj 54 453 bng 15 100 50 0 empty empty Play 17 7 0 10 #fcfcfc #000000
#000000;
#X obj 107 453 bng 15 100 50 0 empty empty Rest 17 7 0 10 #fcfcfc #000000
#000000;
#X obj 86 505 f;
#X obj 54 257 t f f;
#X obj 54 230 % 16;
#X obj 54 354 % 16;
#X obj 54 18 inlet step;
#X obj 178 18 inlet;
#X obj 87 532 outlet;
#X obj 202 72 f \$1;
#X obj 202 48 loadbang;
#X obj 178 96 sel 0;
#X obj 54 320 * 1;
#X obj 296 14 inlet;
#X obj 320 44 loadbang;
#X obj 296 92 sel 0;
#X obj 320 68 f \$2;
#X obj 178 125 max 1;
#X obj 177 152 int;
#X obj 296 124 max 1;
#X obj 296 154 int;
#X obj 394 15 inlet;
#X obj 418 45 loadbang;
#X obj 394 155 int;
#X obj 418 69 f \$3;
#X obj 54 167 f;
#X obj 94 165 + 1;
#X msg 72 140 0;
#X obj 54 62 route bang float;
#X obj 498 17 inlet reset;
#X obj 496 95 bng 15 250 50 0 empty empty empty 17 7 0 10 #fcfcfc #000000
#000000;
#X floatatom 95 231 5 0 0 0 - - - 0;
#X obj 68 92 max 0;
#X obj 33 532 outlet;
#X obj 54 479 t b b;
#X floatatom 118 387 5 0 0 0 - - - 0;
#X obj 54 388 < 1;
#X obj 394 124 max 0;
#X obj 488 45 r lct-cycle-reset;
#X connect 0 0 9 1;
#X connect 0 0 10 1;
#X connect 1 0 17 0;
#X connect 2 0 17 1;
#X connect 2 0 41 1;
#X connect 3 0 1 1;
#X connect 4 0 5 0;
#X connect 4 1 6 0;
#X connect 5 0 39 0;
#X connect 7 0 13 0;
#X connect 8 0 1 0;
#X connect 8 1 7 1;
#X connect 9 0 8 0;
#X connect 9 0 36 0;
#X connect 10 0 40 0;
#X connect 10 0 41 0;
#X connect 11 0 33 0;
#X connect 12 0 16 0;
#X connect 14 0 16 0;
#X connect 15 0 14 0;
#X connect 16 1 22 0;
#X connect 17 0 10 0;
#X connect 18 0 20 0;
#X connect 19 0 21 0;
#X connect 20 1 24 0;
#X connect 21 0 20 0;
#X connect 22 0 23 0;
#X connect 23 0 0 0;
#X connect 24 0 25 0;
#X connect 25 0 2 0;
#X connect 26 0 42 0;
#X connect 27 0 29 0;
#X connect 28 0 3 0;
#X connect 29 0 42 0;
#X connect 30 0 31 0;
#X connect 30 0 9 0;
#X connect 31 0 30 1;
#X connect 32 0 30 1;
#X connect 33 0 30 0;
#X connect 33 1 37 0;
#X connect 34 0 35 0;
#X connect 35 0 32 0;
#X connect 37 0 9 0;
#X connect 39 0 38 0;
#X connect 39 1 7 0;
#X connect 41 0 4 0;
#X connect 42 0 28 0;
#X connect 43 0 35 0;
