#N canvas 667 676 302 300 12;
#X obj 33 27 inlet;
#X obj 33 230 outlet~;
#X obj 33 179 panner;
#X obj 179 103 + 2;
#X obj 179 74 random 6;
#X obj 179 131 / 10;
#X msg 179 44 loadbang;
#X obj 91 230 outlet~;
#X obj 33 67 unpack f f f f f f;
#X obj 36 128 fm 20 1 12 350, f 15;
#X connect 0 0 8 0;
#X connect 2 0 1 0;
#X connect 2 1 7 0;
#X connect 3 0 5 0;
#X connect 4 0 3 0;
#X connect 5 0 2 1;
#X connect 6 0 4 0;
#X connect 8 0 9 0;
#X connect 8 1 9 1;
#X connect 8 2 9 2;
#X connect 8 3 9 3;
#X connect 8 4 9 4;
#X connect 8 5 9 5;
#X connect 9 0 2 0;
