#N canvas 1310 744 693 421 12;
#X obj 43 17 inlet~;
#X obj 128 18 inlet~;
#X obj 43 348 outlet~;
#X obj 128 349 outlet~;
#X obj 200 19 inlet level;
#X obj 43 272 *~ 1;
#X obj 128 272 *~ 1;
#X obj 341 172 f;
#X obj 309 20 inlet mute;
#X floatatom 200 249 5 0 0 0 - - - 0;
#X obj 341 97 bng 15 250 50 0 empty empty empty 17 7 0 10 #fcfcfc #000000
#000000;
#X obj 309 67 sel 1;
#X msg 309 96 0;
#X msg 222 201 \$1 20;
#X obj 222 226 line 0 1;
#X obj 217 71 f \$1;
#X obj 217 43 loadbang;
#X obj 200 133 expr if($f1 < 1 \, pow($f1 \, 2) \, $f1);
#X obj 200 103 clip 0 1000;
#X obj 43 307 clip~ -1 1;
#X obj 128 307 clip~ -1 1;
#X connect 0 0 5 0;
#X connect 1 0 6 0;
#X connect 4 0 18 0;
#X connect 5 0 19 0;
#X connect 6 0 20 0;
#X connect 7 0 13 0;
#X connect 8 0 11 0;
#X connect 9 0 6 1;
#X connect 9 0 5 1;
#X connect 10 0 7 0;
#X connect 11 0 12 0;
#X connect 11 1 10 0;
#X connect 12 0 13 0;
#X connect 13 0 14 0;
#X connect 14 0 9 0;
#X connect 15 0 18 0;
#X connect 16 0 15 0;
#X connect 17 0 7 1;
#X connect 17 0 9 0;
#X connect 18 0 17 0;
#X connect 19 0 2 0;
#X connect 20 0 3 0;
