#N canvas 440 465 480 332 12;
#X obj 43 17 inlet~;
#X obj 119 18 inlet~;
#X obj 43 301 outlet~;
#X obj 119 304 outlet~;
#X obj 200 19 inlet level;
#X obj 200 103 clip 0 1;
#X obj 43 272 *~ 1;
#X obj 119 276 *~ 1;
#X obj 200 131 pow 2;
#X obj 341 172 f;
#X obj 309 20 inlet mute;
#X floatatom 200 249 5 0 0 0 - - - 0;
#X obj 341 136 bng 15 250 50 0 empty empty empty 17 7 0 10 #fcfcfc
#000000 #000000;
#X obj 309 106 sel 1;
#X msg 309 135 0;
#X msg 222 201 \$1 20;
#X obj 222 226 line 0 1;
#X obj 217 71 f \$1;
#X obj 217 43 loadbang;
#X connect 0 0 6 0;
#X connect 1 0 7 0;
#X connect 4 0 5 0;
#X connect 5 0 8 0;
#X connect 6 0 2 0;
#X connect 7 0 3 0;
#X connect 8 0 9 1;
#X connect 8 0 11 0;
#X connect 9 0 15 0;
#X connect 10 0 13 0;
#X connect 11 0 7 1;
#X connect 11 0 6 1;
#X connect 12 0 9 0;
#X connect 13 0 14 0;
#X connect 13 1 12 0;
#X connect 14 0 15 0;
#X connect 15 0 16 0;
#X connect 16 0 11 0;
#X connect 17 0 5 0;
#X connect 18 0 17 0;
