#N canvas 257 420 314 290 12;
#X floatatom 137 133 5 0 100 1 Thresh - - 0;
#X obj 81 103 random 100;
#X obj 137 40 inlet prob;
#X obj 137 73 * 100;
#X obj 81 80 bng 15 250 50 0 empty empty empty 17 7 0 10 #fcfcfc #000000
#000000;
#X obj 81 160 < 100;
#X obj 225 41 f \$1;
#X obj 225 13 loadbang;
#X obj 18 186 *~;
#X obj 18 40 inlet~;
#X obj 18 244 outlet~;
#X obj 81 42 inlet;
#X obj 36 158 line~;
#X msg 36 131 \$1 10;
#X connect 0 0 5 1;
#X connect 1 0 5 0;
#X connect 2 0 3 0;
#X connect 3 0 0 0;
#X connect 4 0 1 0;
#X connect 5 0 13 0;
#X connect 6 0 3 0;
#X connect 7 0 6 0;
#X connect 8 0 10 0;
#X connect 9 0 8 0;
#X connect 11 0 4 0;
#X connect 12 0 8 1;
#X connect 13 0 12 0;
