#N canvas 92 260 313 307 12;
#X obj 44 40 inlet;
#X obj 44 244 outlet;
#X obj 44 186 spigot 1;
#X floatatom 129 133 5 0 100 1 Thresh - -;
#X obj 97 103 random 100;
#X obj 129 40 inlet prob;
#X obj 129 73 * 100;
#X obj 97 80 bng 15 250 50 0 empty empty empty 17 7 0 10 -262144 -1
-1;
#X obj 97 160 < 100;
#X obj 217 41 f \$1;
#X obj 217 13 loadbang;
#X connect 0 0 2 0;
#X connect 0 0 7 0;
#X connect 2 0 1 0;
#X connect 3 0 8 1;
#X connect 4 0 8 0;
#X connect 5 0 6 0;
#X connect 6 0 3 0;
#X connect 7 0 4 0;
#X connect 8 0 2 1;
#X connect 9 0 6 0;
#X connect 10 0 9 0;
