#N canvas 56 241 511 247 12;
#X text 139 12 Y = (X-A)/(B-A) * (D-C) + C;
#X obj 97 170 expr ($f1-$f2)/($f3-$f2)*($f5-$f4)+$f4;
#X obj 12 41 inlet input;
#X obj 99 42 inlet in-min;
#X obj 196 44 inlet in-max;
#X obj 288 44 inlet out-min;
#X obj 388 44 inlet out-max;
#X obj 97 202 outlet;
#X floatatom 118 117 5 0 0 0 - - - 0;
#X obj 124 92 f \$1;
#X obj 390 155 loadbang;
#X obj 124 68 r \$0-lb;
#X floatatom 203 119 5 0 0 0 - - - 0;
#X obj 209 70 r \$0-lb;
#X obj 209 94 f \$2;
#X floatatom 293 122 5 0 0 0 - - - 0;
#X obj 299 73 r \$0-lb;
#X obj 299 97 f \$3;
#X floatatom 388 121 5 0 0 0 - - - 0;
#X obj 394 72 r \$0-lb;
#X obj 394 96 f \$4;
#X obj 390 182 s \$0-lb;
#X obj 23 125 clip 0 127;
#X connect 1 0 7 0;
#X connect 2 0 22 0;
#X connect 3 0 8 0;
#X connect 4 0 12 0;
#X connect 5 0 15 0;
#X connect 6 0 18 0;
#X connect 8 0 1 1;
#X connect 9 0 8 0;
#X connect 9 0 22 1;
#X connect 10 0 21 0;
#X connect 11 0 9 0;
#X connect 12 0 1 2;
#X connect 13 0 14 0;
#X connect 14 0 12 0;
#X connect 14 0 22 2;
#X connect 15 0 1 3;
#X connect 16 0 17 0;
#X connect 17 0 15 0;
#X connect 18 0 1 4;
#X connect 19 0 20 0;
#X connect 20 0 18 0;
#X connect 22 0 1 0;
