#N canvas 647 187 507 478 12;
#X obj 26 23 inlet;
#X obj 102 23 inlet;
#X obj 26 452 noteout 1;
#X obj 157 24 inlet;
#X obj 226 26 inlet;
#X text 31 3 pitch;
#X text 80 2 velocity;
#X text 154 4 Duration;
#X text 228 5 Channel;
#X obj 264 105 loadbang;
#X obj 267 134 f \$1;
#X obj 267 161 expr if($f1 == 0 \, 100 \, $f1);
#X obj 190 184 f \$2;
#X obj 215 267 f \$3;
#X obj 215 295 expr if($f1 == 0 \, 1 \, $f1);
#N canvas 0 22 450 278 (subpatch) 0;
#X array \$0-pitchState 127 float 2;
#X coords 0 1 127 0 200 10 1 0 0;
#X restore 256 265 graph;
#X obj 59 419 array set \$0-pitchState;
#X obj 58 132 array get \$0-pitchState 1;
#X obj 26 210 spigot 1;
#X obj 26 102 t f f;
#X floatatom 79 184 5 0 0 0 - - -;
#X floatatom 26 74 5 0 0 0 - - -;
#X floatatom 35 162 5 0 0 0 - - -;
#X obj 79 159 != 1;
#X msg 59 392 1;
#X msg 90 392 0;
#X floatatom 157 73 5 0 0 0 - - -;
#X obj 59 367 t b f;
#X obj 136 389 t b f;
#X obj 190 212 expr if($f1 == 0 \, 200 \, $f1);
#X obj 136 364 pipe 200;
#X obj 26 330 makenote 100 200;
#X obj 26 49 int;
#X obj 136 192 random;
#X obj 119 161 t f b f;
#X floatatom 158 335 5 0 0 0 - - -;
#X obj 137 217 / 10;
#X obj 119 247 -;
#X obj 81 271 int;
#X obj 80 303 clip 0 127;
#X connect 0 0 32 0;
#X connect 1 0 34 0;
#X connect 3 0 26 0;
#X connect 4 0 2 2;
#X connect 9 0 10 0;
#X connect 9 0 12 0;
#X connect 9 0 13 0;
#X connect 10 0 11 0;
#X connect 11 0 39 0;
#X connect 12 0 29 0;
#X connect 13 0 14 0;
#X connect 14 0 2 2;
#X connect 17 0 22 0;
#X connect 18 0 27 0;
#X connect 18 0 31 0;
#X connect 19 0 18 0;
#X connect 19 1 17 0;
#X connect 20 0 18 1;
#X connect 21 0 19 0;
#X connect 22 0 23 0;
#X connect 23 0 20 0;
#X connect 24 0 16 0;
#X connect 25 0 16 0;
#X connect 26 0 30 1;
#X connect 26 0 31 2;
#X connect 27 0 24 0;
#X connect 27 1 16 1;
#X connect 27 1 30 0;
#X connect 28 0 25 0;
#X connect 28 1 16 1;
#X connect 29 0 31 2;
#X connect 30 0 28 0;
#X connect 31 0 2 0;
#X connect 31 1 2 1;
#X connect 32 0 21 0;
#X connect 33 0 35 0;
#X connect 33 0 36 0;
#X connect 34 0 37 0;
#X connect 34 1 33 0;
#X connect 34 2 33 1;
#X connect 36 0 37 1;
#X connect 37 0 38 0;
#X connect 38 0 39 0;
#X connect 39 0 31 1;
