#N canvas 758 1008 477 267 12;
#X obj 25 23 inlet;
#X obj 82 24 inlet;
#X obj 25 96 makenote 100 300;
#X obj 46 149 noteout 1;
#X obj 157 24 inlet;
#X obj 226 26 inlet;
#X text 31 3 pitch;
#X text 80 2 velocity;
#X text 154 4 Duration;
#X text 228 5 Channel;
#X obj 227 66 loadbang;
#X obj 227 95 f \$1;
#X obj 227 123 expr if($f1 == 0 \, 100 \, $f1);
#X obj 200 146 f \$2;
#X obj 200 174 expr if($f1 == 0 \, 300 \, $f1);
#X obj 151 187 f \$3;
#X obj 151 215 expr if($f1 == 0 \, 1 \, $f1);
#X connect 0 0 2 0;
#X connect 1 0 2 1;
#X connect 2 0 3 0;
#X connect 2 1 3 1;
#X connect 4 0 2 2;
#X connect 5 0 3 2;
#X connect 10 0 11 0;
#X connect 10 0 13 0;
#X connect 10 0 15 0;
#X connect 11 0 12 0;
#X connect 12 0 2 1;
#X connect 13 0 14 0;
#X connect 14 0 2 2;
#X connect 15 0 16 0;
#X connect 16 0 3 2;
