#N canvas 604 136 450 300 12;
#X obj 74 156 sel 0 1 2 3;
#X obj 74 103 sel 0;
#X obj 75 188 outlet;
#X obj 92 212 outlet;
#X obj 74 8 inlet;
#X obj 148 12 inlet;
#X obj 279 11 inlet;
#X obj 110 237 outlet;
#X obj 133 263 outlet;
#X obj 279 44 clip 1 4;
#X obj 199 13 f \$1;
#X obj 334 11 f \$2;
#X obj 147 39 max 1;
#X obj 74 65 mod 1;
#X obj 206 42 loadbang;
#X obj 74 132 random 1;
#X connect 0 0 2 0;
#X connect 0 1 3 0;
#X connect 0 2 7 0;
#X connect 0 3 8 0;
#X connect 1 0 15 0;
#X connect 4 0 13 0;
#X connect 5 0 12 0;
#X connect 6 0 9 0;
#X connect 9 0 15 1;
#X connect 10 0 12 0;
#X connect 11 0 9 0;
#X connect 12 0 13 1;
#X connect 13 0 1 0;
#X connect 14 0 10 0;
#X connect 14 0 11 0;
#X connect 15 0 0 0;
