#N canvas 1162 648 310 358 12;
#X obj 33 38 osc~ 220;
#X floatatom 74 175 5 0 1 2 Pan_position_(0.0_-_1.0) - -;
#X floatatom 84 243 5 0 1 2 Volume_(0.0_-_1.0) - -;
#X floatatom 96 279 5 0 100 2 Reverb_Level - -;
#X obj 35 203 panner;
#X obj 36 308 out, f 5;
#X obj 105 18 tgl 15 0 empty empty empty 17 7 0 10 -262144 -1 -1 0
1;
#X obj 34 142 *~;
#X obj 53 115 vline~;
#X obj 105 39 metro 500;
#X msg 53 87 1 10 \, 0 200 10;
#X obj 218 202 loadbang;
#X msg 218 224 0.5;
#X text 1 234 Left;
#X text 40 233 Right;
#X connect 0 0 7 0;
#X connect 1 0 4 1;
#X connect 2 0 5 2;
#X connect 3 0 5 3;
#X connect 4 0 5 0;
#X connect 4 1 5 1;
#X connect 6 0 9 0;
#X connect 7 0 4 0;
#X connect 8 0 7 1;
#X connect 9 0 10 0;
#X connect 10 0 8 0;
#X connect 11 0 12 0;
#X connect 12 0 2 0;
