#N canvas 1143 366 381 385 12;
#X obj 43 333 dac~;
#X obj 43 23 inlet~;
#X obj 191 23 inlet;
#X floatatom 191 58 5 0 0 0 - - -;
#X text 191 3 Volume;
#X obj 276 24 inlet;
#X floatatom 276 57 5 0 100 0 - - -;
#X obj 276 169 clip 0 100;
#X text 42 2 Left;
#X obj 102 24 inlet~;
#X text 107 2 Right;
#X obj 191 111 pow 2;
#X text 268 2 Rev level;
#X obj 191 139 pack 0 100;
#X obj 191 168 line~;
#X obj 102 201 *~;
#X obj 43 200 *~;
#X obj 119 86 loadbang;
#X obj 139 306 hip~ 300;
#X obj 96 280 hip~ 300;
#X obj 96 248 rev3~ 92 75 4000 30;
#X obj 191 84 clip 0 0.85;
#X msg 119 109 0.85;
#X connect 1 0 16 0;
#X connect 2 0 3 0;
#X connect 3 0 21 0;
#X connect 5 0 6 0;
#X connect 6 0 7 0;
#X connect 7 0 20 2;
#X connect 9 0 15 0;
#X connect 11 0 13 0;
#X connect 13 0 14 0;
#X connect 14 0 15 1;
#X connect 14 0 16 1;
#X connect 15 0 0 1;
#X connect 15 0 20 1;
#X connect 16 0 0 0;
#X connect 16 0 20 0;
#X connect 17 0 22 0;
#X connect 18 0 0 1;
#X connect 19 0 0 0;
#X connect 20 0 19 0;
#X connect 20 1 18 0;
#X connect 21 0 11 0;
#X connect 22 0 13 0;
