#N canvas 654 572 530 385 12;
#X obj 37 353 dac~;
#X obj 37 23 inlet~;
#X obj 198 23 inlet;
#X text 198 3 Volume;
#X obj 346 24 inlet;
#X floatatom 346 92 5 0 100 0 - - - 0;
#X obj 346 120 clip 0 100;
#X text 36 2 Left;
#X obj 102 24 inlet~;
#X text 107 2 Right;
#X obj 198 111 pow 2;
#X text 338 2 Rev level;
#X obj 198 139 pack 0 100;
#X obj 198 168 line~;
#X obj 101 221 *~;
#X obj 37 221 *~;
#X obj 138 326 hip~ 300;
#X obj 95 300 hip~ 300;
#X obj 198 84 clip 0 0.85;
#X obj 198 53 * 0.85;
#X obj 110 54 loadbang;
#X obj 110 78 t b b;
#X obj 110 128 sel 0;
#X floatatom 142 155 5 0 0 0 - - - 0;
#X obj 110 103 f \$1;
#X msg 157 123 0.5;
#X obj 95 268 rev3~ 90 75 3000 30;
#X obj 346 150 / 100;
#X obj 346 207 * 100;
#X floatatom 351 249 5 0 0 0 - - - 0;
#X obj 37 296 *~;
#X obj 63 270 *~;
#X obj 346 179 pow 0.2;
#X obj 151 209 expr 1 - $f1 / 3;
#X obj 153 235 pow 0.6;
#X obj 390 35 loadbang;
#X msg 357 68 80;
#X obj 247 23 r lct-volume;
#X obj 395 68 r lct-reverb;
#X connect 1 0 15 0;
#X connect 2 0 19 0;
#X connect 4 0 5 0;
#X connect 5 0 6 0;
#X connect 6 0 27 0;
#X connect 8 0 14 0;
#X connect 10 0 12 0;
#X connect 12 0 13 0;
#X connect 13 0 14 1;
#X connect 13 0 15 1;
#X connect 14 0 26 1;
#X connect 14 0 31 0;
#X connect 15 0 26 0;
#X connect 15 0 30 0;
#X connect 16 0 0 1;
#X connect 17 0 0 0;
#X connect 18 0 10 0;
#X connect 19 0 18 0;
#X connect 20 0 21 0;
#X connect 21 0 24 0;
#X connect 21 1 25 0;
#X connect 22 1 23 0;
#X connect 23 0 12 0;
#X connect 24 0 22 0;
#X connect 25 0 23 0;
#X connect 26 0 17 0;
#X connect 26 1 16 0;
#X connect 27 0 32 0;
#X connect 28 0 26 2;
#X connect 28 0 29 0;
#X connect 30 0 0 0;
#X connect 31 0 0 1;
#X connect 32 0 28 0;
#X connect 32 0 33 0;
#X connect 33 0 34 0;
#X connect 34 0 31 1;
#X connect 34 0 30 1;
#X connect 35 0 36 0;
#X connect 36 0 5 0;
#X connect 37 0 19 0;
#X connect 38 0 6 0;
