#N canvas 223 695 579 439 12;
#X obj 38 398 dac~;
#X obj 37 23 inlet~;
#X obj 198 23 inlet;
#X text 198 3 Volume;
#X obj 424 32 inlet;
#X floatatom 424 100 5 0 100 0 - - - 0;
#X obj 424 128 clip 0 100;
#X text 36 2 Left;
#X obj 102 24 inlet~;
#X text 107 2 Right;
#X text 416 10 Rev level;
#X obj 198 168 line~;
#X obj 101 221 *~;
#X obj 37 221 *~;
#X obj 139 371 hip~ 300;
#X obj 96 345 hip~ 300;
#X obj 110 54 loadbang;
#X obj 110 78 t b b;
#X obj 110 128 sel 0;
#X floatatom 142 155 5 0 0 0 - - - 0;
#X obj 110 103 f \$1;
#X msg 157 123 0.5;
#X obj 96 313 rev3~ 90 75 3000 30;
#X obj 424 158 / 100;
#X obj 424 215 * 100;
#X floatatom 429 257 5 0 0 0 - - - 0;
#X obj 38 341 *~;
#X obj 64 315 *~;
#X obj 424 187 pow 0.2;
#X obj 151 209 expr 1 - $f1 / 3;
#X obj 153 235 pow 0.6;
#X obj 247 23 r lct-volume;
#X obj 473 76 r lct-reverb;
#X obj 198 111 pow 2;
#X floatatom 283 137 5 0 0 0 - - - 0;
#X floatatom 291 86 5 0 0 0 - - - 0;
#X floatatom 291 109 5 0 0 0 - - - 0;
#X obj 198 139 pack 0 10;
#X obj 198 84 clip 0 1;
#X obj 198 53 * 0.95;
#X obj 47 264 lop~ 7000;
#X obj 122 270 lop~ 7000;
#X obj 344 15 loadbang;
#X obj 344 39 t b b;
#X obj 344 89 sel 0;
#X floatatom 376 116 5 0 0 0 - - - 0;
#X obj 344 64 f \$2;
#X msg 391 84 80;
#X connect 1 0 13 0;
#X connect 2 0 39 0;
#X connect 4 0 5 0;
#X connect 5 0 6 0;
#X connect 6 0 23 0;
#X connect 8 0 12 0;
#X connect 11 0 12 1;
#X connect 11 0 13 1;
#X connect 12 0 27 0;
#X connect 12 0 41 0;
#X connect 13 0 26 0;
#X connect 13 0 40 0;
#X connect 14 0 0 1;
#X connect 15 0 0 0;
#X connect 16 0 17 0;
#X connect 17 0 20 0;
#X connect 17 1 21 0;
#X connect 18 1 19 0;
#X connect 19 0 39 0;
#X connect 20 0 18 0;
#X connect 21 0 19 0;
#X connect 22 0 15 0;
#X connect 22 1 14 0;
#X connect 23 0 28 0;
#X connect 24 0 22 2;
#X connect 24 0 25 0;
#X connect 26 0 0 0;
#X connect 27 0 0 1;
#X connect 28 0 24 0;
#X connect 28 0 29 0;
#X connect 29 0 30 0;
#X connect 30 0 27 1;
#X connect 30 0 26 1;
#X connect 31 0 39 0;
#X connect 32 0 6 0;
#X connect 33 0 34 0;
#X connect 33 0 37 0;
#X connect 35 0 33 1;
#X connect 35 0 36 0;
#X connect 37 0 11 0;
#X connect 38 0 33 0;
#X connect 39 0 38 0;
#X connect 40 0 22 0;
#X connect 41 0 22 1;
#X connect 42 0 43 0;
#X connect 43 0 46 0;
#X connect 43 1 47 0;
#X connect 44 1 45 0;
#X connect 45 0 5 0;
#X connect 46 0 44 0;
#X connect 47 0 45 0;
