#N canvas 0 23 330 320 10;
#X obj 23 29 inlet~ signal;
#X obj 139 32 inlet control;
#X obj 24 244 *~;
#X obj 118 219 *~;
#X obj 24 275 outlet~ left;
#X obj 118 276 outlet~ right;
#X obj 42 214 cos~;
#X obj 136 188 cos~;
#X floatatom 137 82 5 0 0 0 - - -;
#X obj 136 116 + 0.75;
#X obj 136 164 line~;
#X msg 136 140 \$1 10;
#X obj 42 189 line~;
#X msg 42 166 \$1 10;
#X obj 138 57 / 4;
#X text 176 56 <-- Range: 0-.25;
#X connect 0 0 2 0;
#X connect 0 0 3 0;
#X connect 1 0 14 0;
#X connect 2 0 4 0;
#X connect 3 0 5 0;
#X connect 6 0 2 1;
#X connect 7 0 3 1;
#X connect 8 0 9 0;
#X connect 8 0 13 0;
#X connect 9 0 11 0;
#X connect 10 0 7 0;
#X connect 11 0 10 0;
#X connect 12 0 6 0;
#X connect 13 0 12 0;
#X connect 14 0 8 0;
