#N canvas 939 304 573 536 12;
#X obj 62 214 poly 4 1;
#X floatatom 46 248 5 0 0 0 - - - 0;
#X floatatom 92 249 5 0 0 0 - - - 0;
#X floatatom 139 248 5 0 0 0 - - - 0;
#X listbox 46 394 20 0 0 0 - - - 0;
#X msg 128 177 clear;
#X obj 63 178 pack;
#X msg 145 137 0;
#X msg 194 178 stop;
#X obj 46 277 - 1;
#X obj 90 278 stripnote;
#X obj 46 314 spigot 0;
#X floatatom 283 170 5 0 10000 2 Cutoff - - 0;
#X floatatom 388 170 5 0 2000 2 Attack - - 0;
#X floatatom 501 172 5 0 2000 2 Release - - 0;
#X obj 22 464 /~ 4;
#X obj 48 28 inlet pitch;
#X obj 143 29 inlet vel;
#X obj 225 29 inlet cutoff;
#X obj 331 29 inlet attack;
#X obj 436 29 inlet release;
#X obj 22 496 outlet~;
#X obj 166 459 /~ 4;
#X obj 166 491 outlet~;
#X obj 22 428 clone synth-wrapper 8;
#X obj 27 63 bng 15 250 50 0 empty empty empty 17 7 0 10 #fcfcfc #000000
#000000;
#X obj 46 363 pack f f f 1500 10 500;
#X obj 71 96 pipe f f 10;
#X msg 283 120 2000;
#X obj 228 65 loadbang;
#X obj 228 114 f \$1;
#X obj 228 89 t b b;
#X obj 228 139 sel 0;
#X obj 333 70 loadbang;
#X obj 333 94 t b b;
#X obj 333 144 sel 0;
#X msg 388 125 12;
#X obj 445 70 loadbang;
#X obj 445 94 t b b;
#X obj 445 144 sel 0;
#X msg 501 122 350;
#X obj 333 119 f \$2;
#X obj 445 119 f \$3;
#X connect 0 0 1 0;
#X connect 0 1 2 0;
#X connect 0 2 3 0;
#X connect 1 0 9 0;
#X connect 2 0 10 0;
#X connect 3 0 10 1;
#X connect 3 0 11 1;
#X connect 5 0 0 0;
#X connect 6 0 0 0;
#X connect 7 0 6 1;
#X connect 8 0 0 0;
#X connect 9 0 11 0;
#X connect 10 0 26 1;
#X connect 10 1 26 2;
#X connect 11 0 26 0;
#X connect 12 0 26 3;
#X connect 13 0 26 4;
#X connect 14 0 26 5;
#X connect 15 0 21 0;
#X connect 16 0 6 0;
#X connect 16 0 25 0;
#X connect 16 0 27 0;
#X connect 17 0 6 1;
#X connect 18 0 12 0;
#X connect 19 0 13 0;
#X connect 20 0 14 0;
#X connect 22 0 23 0;
#X connect 24 0 15 0;
#X connect 24 1 22 0;
#X connect 26 0 4 0;
#X connect 26 0 24 0;
#X connect 27 0 6 0;
#X connect 27 1 7 0;
#X connect 28 0 12 0;
#X connect 29 0 31 0;
#X connect 30 0 32 0;
#X connect 31 0 30 0;
#X connect 31 1 28 0;
#X connect 32 1 12 0;
#X connect 33 0 34 0;
#X connect 34 0 41 0;
#X connect 34 1 36 0;
#X connect 35 1 13 0;
#X connect 36 0 13 0;
#X connect 37 0 38 0;
#X connect 38 0 42 0;
#X connect 38 1 40 0;
#X connect 39 1 14 0;
#X connect 40 0 14 0;
#X connect 41 0 35 0;
#X connect 42 0 39 0;
