#N canvas 1143 177 570 532 12;
#X floatatom 55 239 5 0 0 0 - - - 0;
#X floatatom 101 240 5 0 0 0 - - - 0;
#X floatatom 148 239 5 0 0 0 - - - 0;
#X listbox 55 385 20 0 0 0 - - - 0;
#X msg 137 168 clear;
#X obj 72 169 pack;
#X msg 203 169 stop;
#X obj 55 268 - 1;
#X obj 99 269 stripnote;
#X obj 55 305 spigot 0;
#X floatatom 292 161 5 0 10000 2 Cutoff - - 0;
#X floatatom 397 161 5 0 2000 2 Attack - - 0;
#X floatatom 510 163 5 0 2000 2 Release - - 0;
#X obj 31 455 /~ 4;
#X obj 57 19 inlet pitch;
#X obj 152 20 inlet vel;
#X obj 234 20 inlet cutoff;
#X obj 340 20 inlet attack;
#X obj 445 20 inlet release;
#X obj 31 488 outlet~;
#X obj 175 450 /~ 4;
#X obj 175 483 outlet~;
#X obj 31 419 clone synth-wrapper 8;
#X obj 65 52 bng 15 250 50 0 empty empty empty 17 7 0 10 #fcfcfc #000000
#000000;
#X msg 292 111 2000;
#X obj 237 56 loadbang;
#X obj 237 105 f \$1;
#X obj 237 80 t b b;
#X obj 237 130 sel 0;
#X obj 342 61 loadbang;
#X obj 342 85 t b b;
#X obj 342 135 sel 0;
#X msg 397 116 12;
#X obj 454 61 loadbang;
#X obj 454 85 t b b;
#X obj 454 135 sel 0;
#X msg 510 113 350;
#X obj 342 110 f \$2;
#X obj 454 110 f \$3;
#X obj 71 205 poly 8 1;
#X msg 153 82 100;
#X obj 155 54 loadbang;
#X obj 16 172 sel 0;
#X obj 14 109 unpack 0 0 0 0 0 0 0 0;
#X obj 13 144 clip 0 127;
#X obj 55 354 pack f f f 500 10 500;
#X floatatom 55 82 5 0 0 0 - - - 0;
#X connect 0 0 7 0;
#X connect 1 0 8 0;
#X connect 2 0 8 1;
#X connect 2 0 9 1;
#X connect 4 0 39 0;
#X connect 5 0 39 0;
#X connect 6 0 39 0;
#X connect 7 0 9 0;
#X connect 8 0 45 1;
#X connect 8 1 45 2;
#X connect 9 0 45 0;
#X connect 10 0 45 3;
#X connect 11 0 45 4;
#X connect 12 0 45 5;
#X connect 13 0 19 0;
#X connect 14 0 23 0;
#X connect 14 0 43 0;
#X connect 14 0 46 0;
#X connect 15 0 5 1;
#X connect 16 0 10 0;
#X connect 17 0 11 0;
#X connect 18 0 12 0;
#X connect 20 0 21 0;
#X connect 22 0 13 0;
#X connect 22 1 20 0;
#X connect 24 0 10 0;
#X connect 25 0 27 0;
#X connect 26 0 28 0;
#X connect 27 0 26 0;
#X connect 27 1 24 0;
#X connect 28 1 10 0;
#X connect 29 0 30 0;
#X connect 30 0 37 0;
#X connect 30 1 32 0;
#X connect 31 1 11 0;
#X connect 32 0 11 0;
#X connect 33 0 34 0;
#X connect 34 0 38 0;
#X connect 34 1 36 0;
#X connect 35 1 12 0;
#X connect 36 0 12 0;
#X connect 37 0 31 0;
#X connect 38 0 35 0;
#X connect 39 0 0 0;
#X connect 39 1 1 0;
#X connect 39 2 2 0;
#X connect 40 0 5 1;
#X connect 41 0 40 0;
#X connect 42 1 5 0;
#X connect 43 0 44 0;
#X connect 43 1 44 0;
#X connect 43 2 44 0;
#X connect 43 3 44 0;
#X connect 43 4 44 0;
#X connect 43 5 44 0;
#X connect 43 6 44 0;
#X connect 43 7 44 0;
#X connect 44 0 42 0;
#X connect 45 0 3 0;
#X connect 45 0 22 0;
