#N canvas 213 621 768 551 12;
#X floatatom 46 248 5 0 0 0 - - - 0;
#X floatatom 92 249 5 0 0 0 - - - 0;
#X floatatom 139 248 5 0 0 0 - - - 0;
#X listbox 46 394 20 0 0 0 - - - 0;
#X msg 128 177 clear;
#X obj 63 178 pack;
#X msg 145 137 0;
#X msg 194 178 stop;
#X obj 46 277 - 1;
#X obj 90 278 stripnote;
#X obj 46 314 spigot 0;
#X floatatom 297 170 5 0 10000 2 Mod\ Index - - 0;
#X floatatom 577 175 5 0 2000 2 Attack - - 0;
#X floatatom 690 177 5 0 2000 2 Release - - 0;
#X obj 22 464 /~ 4;
#X obj 48 28 inlet pitch;
#X obj 143 29 inlet vel;
#X obj 520 34 inlet attack;
#X obj 625 34 inlet release;
#X obj 22 496 outlet~;
#X obj 145 464 /~ 4;
#X obj 145 496 outlet~;
#X obj 71 70 bng 15 250 50 0 empty empty empty 17 7 0 10 #fcfcfc #000000
#000000;
#X obj 242 65 loadbang;
#X obj 242 114 f \$1;
#X obj 242 89 t b b;
#X obj 242 139 sel 0;
#X obj 522 75 loadbang;
#X obj 522 99 t b b;
#X obj 522 149 sel 0;
#X msg 577 130 12;
#X obj 634 75 loadbang;
#X obj 634 99 t b b;
#X obj 634 149 sel 0;
#X msg 690 127 350;
#X obj 62 214 poly 8 1;
#X obj 22 428 clone fm-wrapper 8;
#X obj 239 29 inlet mod-index;
#X msg 297 120 20;
#X floatatom 439 169 5 0 10000 2 CM-Ratio - - 0;
#X obj 384 64 loadbang;
#X obj 384 88 t b b;
#X obj 384 138 sel 0;
#X obj 384 113 f \$2;
#X obj 522 124 f \$3;
#X obj 634 124 f \$4;
#X obj 381 28 inlet cm-ratio;
#X msg 439 119 1;
#X obj 46 363 pack f f f f f f f;
#X obj 147 61 loadbang;
#X msg 147 85 100;
#X obj 16 172 sel 0;
#X obj 14 109 unpack 0 0 0 0 0 0 0 0;
#X obj 13 144 clip 0 127;
#X connect 0 0 8 0;
#X connect 1 0 9 0;
#X connect 2 0 9 1;
#X connect 2 0 10 1;
#X connect 4 0 35 0;
#X connect 5 0 35 0;
#X connect 6 0 5 1;
#X connect 7 0 35 0;
#X connect 8 0 10 0;
#X connect 9 0 48 1;
#X connect 9 1 48 2;
#X connect 10 0 48 0;
#X connect 11 0 48 3;
#X connect 12 0 48 5;
#X connect 13 0 48 6;
#X connect 14 0 19 0;
#X connect 15 0 22 0;
#X connect 15 0 52 0;
#X connect 16 0 5 1;
#X connect 17 0 12 0;
#X connect 18 0 13 0;
#X connect 20 0 21 0;
#X connect 23 0 25 0;
#X connect 24 0 26 0;
#X connect 25 0 24 0;
#X connect 25 1 38 0;
#X connect 26 1 11 0;
#X connect 27 0 28 0;
#X connect 28 0 44 0;
#X connect 28 1 30 0;
#X connect 29 1 12 0;
#X connect 30 0 12 0;
#X connect 31 0 32 0;
#X connect 32 0 45 0;
#X connect 32 1 34 0;
#X connect 33 1 13 0;
#X connect 34 0 13 0;
#X connect 35 0 0 0;
#X connect 35 1 1 0;
#X connect 35 2 2 0;
#X connect 36 0 14 0;
#X connect 36 1 20 0;
#X connect 37 0 11 0;
#X connect 38 0 11 0;
#X connect 39 0 48 4;
#X connect 40 0 41 0;
#X connect 41 0 43 0;
#X connect 41 1 47 0;
#X connect 42 1 39 0;
#X connect 43 0 42 0;
#X connect 44 0 29 0;
#X connect 45 0 33 0;
#X connect 46 0 39 0;
#X connect 47 0 39 0;
#X connect 48 0 3 0;
#X connect 48 0 36 0;
#X connect 49 0 50 0;
#X connect 50 0 5 1;
#X connect 51 1 5 0;
#X connect 52 0 53 0;
#X connect 52 1 53 0;
#X connect 52 2 53 0;
#X connect 52 3 53 0;
#X connect 52 4 53 0;
#X connect 52 5 53 0;
#X connect 52 6 53 0;
#X connect 52 7 53 0;
#X connect 53 0 51 0;
