#N canvas 548 205 272 287 12;
#X msg 31 29 4;
#X obj 31 53 until;
#X obj 31 77 t b b;
#X obj 31 101 random 36;
#X obj 31 149 quant 0 2 4 7 9;
#X obj 31 125 + 36;
#X floatatom 103 184 5 0 10000 2 Cutoff - - 0;
#X floatatom 149 185 5 0 2000 2 Attack - - 0;
#X floatatom 196 187 5 0 2000 2 Release - - 0;
#X obj 109 101 random 50;
#X obj 109 125 + 60;
#X text 69 28 Play 4 notes;
#X obj 31 244 out~ 0.1;
#X text 93 54 Inlet 1 - pitch;
#X text 93 72 Inlet 2 - velocity;
#X obj 31 208 polysynth~ 200 12 350;
#X text 28 5 An 8 voice version of synth~;
#X connect 0 0 1 0;
#X connect 1 0 2 0;
#X connect 2 0 3 0;
#X connect 2 1 9 0;
#X connect 3 0 5 0;
#X connect 4 0 15 0;
#X connect 5 0 4 0;
#X connect 6 0 15 2;
#X connect 7 0 15 3;
#X connect 8 0 15 4;
#X connect 9 0 10 0;
#X connect 10 0 15 1;
#X connect 15 0 12 0;
#X connect 15 1 12 1;
