#N canvas 28 618 501 378 12;
#X obj 94 237 bng 15 250 50 0 empty empty empty 17 7 0 10 #c6ffc7 #000000
#000000;
#X obj 92 340 out~ 0.1;
#X msg 194 110 samples/hello.wav;
#X msg 214 84 samples/C4EP.wav;
#X floatatom 221 164 5 0 127 2 Speed\ (0.1-11.9\ &\ 12\ -\ 127) - -
0;
#X floatatom 255 202 5 0 1 2 Start\ Pos\ (0-1) - - 0;
#X floatatom 292 245 5 0 1 2 End\ Pos\ (0-1) - - 0;
#X floatatom 135 239 5 0 127 2 Vel\ (0-127) - - 0;
#X text 260 160 Either 1 or 60 is normal speed;
#X msg 38 63 4;
#X obj 38 87 until;
#X obj 38 111 t b b;
#X obj 38 135 random 36;
#X obj 38 183 quant 0 2 4 7 9;
#X obj 38 159 + 36;
#X obj 116 135 random 50;
#X obj 116 159 + 60;
#X text 76 62 Play 4 notes;
#X obj 39 11 tgl 15 0 empty empty empty 17 7 0 10 #fcfcfc #000000 #000000
0 1;
#X obj 39 34 tempo 120 1;
#X text 146 11 An 8 voice version of sample~;
#X text 147 33 All voices share the one sample;
#X obj 92 277 polysample~ samples/hello.wav;
#X msg 17 232 60 64 67;
#X text 16 213 Chord;
#X floatatom 13 279 5 0 0 3 Pitch\ as\ speed - - 0;
#X connect 0 0 22 0;
#X connect 2 0 22 2;
#X connect 3 0 22 2;
#X connect 4 0 22 3;
#X connect 5 0 22 4;
#X connect 6 0 22 5;
#X connect 7 0 22 1;
#X connect 9 0 10 0;
#X connect 10 0 11 0;
#X connect 11 0 12 0;
#X connect 11 1 15 0;
#X connect 12 0 14 0;
#X connect 13 0 22 0;
#X connect 14 0 13 0;
#X connect 15 0 16 0;
#X connect 18 0 19 0;
#X connect 19 0 9 0;
#X connect 22 0 1 0;
#X connect 22 1 1 1;
#X connect 23 0 22 0;
#X connect 25 0 22 0;
