#N canvas 522 580 289 187 12;
#X obj 33 113 quant 0 2 3 7 9;
#X obj 33 61 random 127;
#X floatatom 33 88 5 0 0 0 - - -;
#X obj 33 13 tgl 15 0 empty empty empty 17 7 0 10 -262144 -1 -1 1 1
;
#X floatatom 33 140 5 0 0 0 - - -;
#X text 136 62 pitch class list;
#X text 62 11 Pitch Quantise;
#X obj 33 34 metro 400;
#X msg 135 83 0 2 4 5 7 9 11;
#X connect 0 0 4 0;
#X connect 1 0 2 0;
#X connect 2 0 0 0;
#X connect 3 0 7 0;
#X connect 7 0 1 0;
#X connect 8 0 0 1;
