#N canvas 542 726 690 374 12;
#X obj 27 16 inlet step;
#X obj 110 14 inlet steps;
#X floatatom 110 132 5 0 0 0 - - -;
#X obj 26 330 outlet;
#X obj 191 40 loadbang;
#X obj 123 84 f \$1;
#X text 137 60 Integer;
#X text 39 43 Integer;
#X text 307 38 Float;
#X text 368 43 Float, f 6;
#X obj 4 47 bng 15 250 50 0 empty empty empty 17 7 0 10 -262144 -1
-1;
#X obj 260 17 inlet start;
#X obj 351 16 inlet end;
#X obj 437 16 inlet curve;
#X text 427 39 positive float;
#X obj 437 72 max 0;
#X obj 315 105 -;
#X obj 262 43 t b f;
#X obj 297 201 f;
#X floatatom 315 132 5 0 0 0 - - -;
#X obj 110 39 max 0;
#X obj 290 73 f \$2;
#X obj 350 71 f \$3;
#X obj 315 168 /;
#X floatatom 327 202 5 0 0 0 - - -;
#X obj 27 189 t f b;
#X obj 27 218 *;
#X floatatom 27 245 5 0 0 0 - - -;
#X obj 27 162 min;
#X obj 27 126 max 0;
#X obj 26 276 +;
#X floatatom 26 303 5 0 0 0 - - -;
#X obj 45 78 f;
#X obj 27 102 -;
#X obj 535 15 inlet reset;
#X obj 534 41 route bang;
#X text 512 63 bang or step numb;
#X obj 93 282 /;
#X obj 93 306 pow 1;
#X obj 93 329 *;
#X floatatom 429 136 5 0 0 0 - - -;
#X obj 399 74 f \$4;
#X obj 400 99 expr if($f1 == 0 \, 1 \, $f1);
#X obj 123 109 expr if($f1 == 0 \, 16 \, $f1);
#X connect 0 0 10 0;
#X connect 0 0 32 1;
#X connect 0 0 33 0;
#X connect 1 0 20 0;
#X connect 2 0 23 1;
#X connect 2 0 28 1;
#X connect 4 0 5 0;
#X connect 4 0 21 0;
#X connect 4 0 22 0;
#X connect 4 0 41 0;
#X connect 5 0 43 0;
#X connect 11 0 17 0;
#X connect 12 0 22 0;
#X connect 13 0 15 0;
#X connect 15 0 40 0;
#X connect 16 0 19 0;
#X connect 17 0 22 0;
#X connect 17 1 21 0;
#X connect 18 0 26 1;
#X connect 19 0 23 0;
#X connect 19 0 37 1;
#X connect 19 0 39 1;
#X connect 20 0 2 0;
#X connect 21 0 16 1;
#X connect 21 0 30 1;
#X connect 22 0 16 0;
#X connect 23 0 18 1;
#X connect 23 0 24 0;
#X connect 25 0 26 0;
#X connect 25 1 18 0;
#X connect 26 0 27 0;
#X connect 27 0 37 0;
#X connect 28 0 25 0;
#X connect 29 0 28 0;
#X connect 30 0 31 0;
#X connect 31 0 3 0;
#X connect 32 0 33 1;
#X connect 33 0 29 0;
#X connect 34 0 35 0;
#X connect 35 0 32 0;
#X connect 35 1 32 0;
#X connect 37 0 38 0;
#X connect 38 0 39 0;
#X connect 39 0 30 0;
#X connect 40 0 38 1;
#X connect 41 0 42 0;
#X connect 42 0 40 0;
#X connect 43 0 2 0;
