#N canvas 1477 318 517 857 12;
#X obj 265 316 -;
#X floatatom 265 348 5 0 0 1 diff - - 0;
#X obj 265 419 /;
#X floatatom 265 451 10 0 0 1 inc - - 0;
#X obj 265 375 * -1;
#X floatatom 57 245 5 0 1000 2 step - - 0;
#X obj 57 497 *;
#X floatatom 57 529 5 0 0 0 - - - 0;
#X obj 57 560 +;
#X floatatom 172 276 5 0 0 1 start - - 0;
#X floatatom 57 592 5 0 0 0 - - - 0;
#X obj 57 276 max 0;
#X obj 57 322 min;
#X floatatom 375 275 5 0 0 1 steps - - 0;
#X floatatom 270 273 5 0 0 1 end - - 0;
#X obj 57 197 f;
#X obj 90 196 + 1;
#X msg 84 170 0;
#X obj 461 120 bng 15 250 50 0 empty empty reset 17 7 0 10 #fcfcfc
#000000 #000000;
#X obj 51 95 bng 15 250 50 0 empty empty empty 17 7 0 10 #fcfcfc #000000
#000000;
#X floatatom 75 98 5 0 0 0 - - - 0;
#X obj 35 126 route bang float;
#X floatatom 247 113 5 0 0 2 start\ in - - 0;
#X obj 247 147 t f b b;
#X floatatom 329 114 5 0 0 2 end\ in - - 0;
#X obj 329 146 t b f b;
#X floatatom 172 118 5 0 0 2 steps\ in - - 0;
#X obj 172 147 t b b f;
#X obj 172 17 inlet;
#X obj 247 16 inlet;
#X obj 329 18 inlet;
#X obj 461 20 inlet;
#X obj 35 22 inlet;
#X obj 172 70 f \$1;
#X obj 247 71 f \$2;
#X obj 329 73 f \$3;
#X obj 58 816 outlet, f 7;
#X obj 258 38 loadbang;
#X obj 57 642 -;
#X obj 57 666 / 1;
#X obj 57 690 pow 1;
#X obj 57 714 * 1;
#X obj 57 738 +;
#X obj 102 580 min;
#X floatatom 102 607 5 0 0 0 - - - 0;
#X obj 58 763 t a;
#X floatatom 58 788 5 0 0 0 - - - 0;
#X obj 395 18 inlet;
#X text 407 36 power;
#X obj 405 74 f \$4;
#X obj 406 109 sel 0;
#X floatatom 396 146 5 0 0 0 - - - 0;
#X connect 0 0 1 0;
#X connect 1 0 4 0;
#X connect 1 0 39 1;
#X connect 1 0 41 1;
#X connect 2 0 3 0;
#X connect 3 0 6 1;
#X connect 4 0 2 0;
#X connect 5 0 11 0;
#X connect 6 0 7 0;
#X connect 7 0 8 0;
#X connect 8 0 10 0;
#X connect 9 0 0 0;
#X connect 9 0 8 1;
#X connect 9 0 43 0;
#X connect 10 0 38 0;
#X connect 11 0 12 0;
#X connect 12 0 6 0;
#X connect 13 0 2 1;
#X connect 13 0 12 1;
#X connect 14 0 0 1;
#X connect 14 0 43 1;
#X connect 15 0 5 0;
#X connect 15 0 16 0;
#X connect 16 0 15 1;
#X connect 17 0 15 1;
#X connect 18 0 17 0;
#X connect 19 0 21 0;
#X connect 20 0 21 0;
#X connect 21 0 15 0;
#X connect 21 1 15 0;
#X connect 22 0 23 0;
#X connect 23 0 9 0;
#X connect 23 1 14 0;
#X connect 23 2 13 0;
#X connect 24 0 25 0;
#X connect 25 0 9 0;
#X connect 25 1 14 0;
#X connect 25 2 13 0;
#X connect 26 0 27 0;
#X connect 27 0 9 0;
#X connect 27 1 14 0;
#X connect 27 2 13 0;
#X connect 28 0 33 0;
#X connect 29 0 34 0;
#X connect 30 0 35 0;
#X connect 31 0 18 0;
#X connect 32 0 21 0;
#X connect 33 0 26 0;
#X connect 34 0 22 0;
#X connect 35 0 24 0;
#X connect 37 0 34 0;
#X connect 37 0 35 0;
#X connect 37 0 33 0;
#X connect 37 0 49 0;
#X connect 38 0 39 0;
#X connect 39 0 40 0;
#X connect 40 0 41 0;
#X connect 41 0 42 0;
#X connect 42 0 45 0;
#X connect 43 0 44 0;
#X connect 44 0 38 1;
#X connect 45 0 46 0;
#X connect 46 0 36 0;
#X connect 47 0 51 0;
#X connect 49 0 50 0;
#X connect 50 1 51 0;
#X connect 51 0 40 1;
