#N canvas 1470 560 267 217 12;
#X obj 31 149 line 0 1;
#X obj 29 41 inlet;
#X msg 30 119 \$1 \$2;
#X obj 28 85 pack;
#X obj 101 43 inlet;
#X obj 100 77 f \$1;
#X obj 159 48 loadbang;
#X text 30 18 value;
#X text 101 20 duration (ms);
#X obj 32 179 outlet;
#X connect 0 0 9 0;
#X connect 1 0 3 0;
#X connect 2 0 0 0;
#X connect 3 0 2 0;
#X connect 4 0 5 0;
#X connect 5 0 3 1;
#X connect 6 0 5 0;
