#N canvas 1349 539 707 531 12;
#X obj 15 27 inlet;
#X obj 98 121 f \$1;
#X obj 109 13 loadbang;
#X obj 167 120 f \$2;
#X obj 106 39 t b b b;
#X obj 194 37 inlet;
#X obj 253 36 inlet;
#X obj 194 64 t b f;
#X obj 253 65 t f b;
#X obj 33 391 outlet;
#X text 12 171 Linear;
#X text 213 113 Gaussian;
#X obj 174 275 random 0;
#X obj 246 274 random 0;
#X floatatom 197 433 5 0 0 0 - - - 0;
#X obj 171 463 +;
#X obj 172 490 outlet;
#X text 374 142 Walk;
#X obj 422 298 f;
#X obj 382 171 random;
#X obj 420 144 * 2;
#X obj 382 202 -;
#X obj 383 325 +;
#X floatatom 383 353 5 0 0 0 - - - 0;
#X floatatom 383 285 5 0 0 0 - - - 0;
#X obj 383 257 t f b, f 6;
#X obj 341 38 inlet;
#X obj 412 38 inlet;
#X text 333 7 Low Lim;
#X text 400 8 High Lim;
#X obj 341 65 f \$3;
#X obj 412 75 f \$4;
#X floatatom 383 450 5 0 0 0 - - - 0;
#X obj 383 478 outlet;
#X obj 344 204 - 1;
#X obj 39 132 bng 15 250 50 0 empty empty empty 17 7 0 10 #fcfcfc #000000
#000000;
#X floatatom 108 168 5 0 0 0 - - - 0;
#X floatatom 123 491 5 0 0 0 - - - 0;
#X obj 461 446 bng 15 250 50 0 empty empty empty 17 7 0 10 #fcfcfc
#000000 #000000;
#X obj 383 420 expr if ($f1 > $f2 \, $f1 - $f3 \, $f1);
#X obj 383 386 expr if ($f1 < $f2 \, $f1 + $f3 \, $f1);
#X obj 76 181 * 2;
#X obj 33 362 +;
#X obj 33 332 -;
#X text 187 7 Centre;
#X text 249 6 Deviation;
#X obj 34 271 random;
#X floatatom 92 391 5 0 0 0 - - - 0;
#X obj 343 114 expr if($f1 <= 0 \, 0 \, $f1);
#X obj 477 189 expr if($f1 >= 127 \, 127 \, $f1);
#X obj 476 159 expr if($f1 <= 0 \, 127 \, $f1);
#X obj 174 353 +;
#X obj 174 380 / 2;
#X obj 224 193 * 2;
#X obj 197 408 -;
#X obj 246 307 * 0.01;
#X obj 174 309 * 0.01;
#X obj 226 226 * 100;
#X obj 226 252 + 1;
#X obj 299 223 * 100;
#X obj 299 248 + 1;
#X obj 56 209 * 100;
#X obj 58 241 + 1;
#X obj 36 304 * 0.01;
#X obj 313 172 * 100;
#X obj 382 231 * 0.01;
#X obj 15 60 route bang float;
#X floatatom 68 84 5 0 0 0 - - - 0;
#X text 14 5 bang or int;
#X connect 0 0 66 0;
#X connect 1 0 18 0;
#X connect 1 0 36 0;
#X connect 1 0 42 1;
#X connect 2 0 4 0;
#X connect 3 0 39 2;
#X connect 3 0 40 2;
#X connect 3 0 41 0;
#X connect 3 0 53 0;
#X connect 3 0 54 1;
#X connect 3 0 43 1;
#X connect 3 0 64 0;
#X connect 4 0 3 0;
#X connect 4 1 1 0;
#X connect 4 2 30 0;
#X connect 4 2 31 0;
#X connect 5 0 7 0;
#X connect 6 0 8 0;
#X connect 7 0 3 0;
#X connect 7 0 35 0;
#X connect 7 1 1 0;
#X connect 8 0 1 0;
#X connect 8 1 3 0;
#X connect 12 0 56 0;
#X connect 13 0 55 0;
#X connect 14 0 15 0;
#X connect 15 0 16 0;
#X connect 15 0 37 0;
#X connect 18 0 22 1;
#X connect 19 0 21 0;
#X connect 20 0 19 1;
#X connect 21 0 65 0;
#X connect 22 0 23 0;
#X connect 23 0 40 0;
#X connect 24 0 22 0;
#X connect 25 0 24 0;
#X connect 25 1 18 0;
#X connect 26 0 30 0;
#X connect 27 0 31 0;
#X connect 30 0 48 0;
#X connect 31 0 50 0;
#X connect 32 0 33 0;
#X connect 32 0 18 1;
#X connect 32 0 38 0;
#X connect 34 0 21 1;
#X connect 35 0 12 0;
#X connect 35 0 13 0;
#X connect 35 0 19 0;
#X connect 35 0 46 0;
#X connect 36 0 15 1;
#X connect 39 0 32 0;
#X connect 40 0 39 0;
#X connect 41 0 61 0;
#X connect 42 0 9 0;
#X connect 42 0 47 0;
#X connect 43 0 42 0;
#X connect 46 0 63 0;
#X connect 48 0 40 1;
#X connect 49 0 39 1;
#X connect 50 0 49 0;
#X connect 51 0 52 0;
#X connect 52 0 54 0;
#X connect 53 0 57 0;
#X connect 53 0 59 0;
#X connect 54 0 14 0;
#X connect 55 0 51 1;
#X connect 56 0 51 0;
#X connect 57 0 58 0;
#X connect 58 0 12 1;
#X connect 59 0 60 0;
#X connect 60 0 13 1;
#X connect 61 0 62 0;
#X connect 62 0 46 1;
#X connect 63 0 43 0;
#X connect 64 0 34 0;
#X connect 64 0 20 0;
#X connect 65 0 25 0;
#X connect 66 0 35 0;
#X connect 66 1 67 0;
#X connect 67 0 7 0;
