#N canvas 1344 459 707 531 12;
#X obj 32 41 inlet;
#X text 31 15 bang;
#X obj 85 120 f \$1;
#X obj 103 15 loadbang;
#X obj 149 98 f \$2;
#X obj 100 41 t b b b;
#X obj 188 39 inlet;
#X obj 247 38 inlet;
#X obj 188 66 t b f;
#X obj 247 67 t f b;
#X obj 31 317 outlet;
#X text 21 106 Linear;
#X text 207 99 Gaussian;
#X obj 203 164 random 0;
#X obj 275 163 random 0;
#X obj 203 192 /;
#X floatatom 202 220 5 0 0 0 - - -;
#X obj 275 187 /;
#X floatatom 275 215 5 0 0 0 - - -;
#X obj 237 249 *;
#X floatatom 238 279 5 0 0 0 - - -;
#X obj 238 339 *;
#X floatatom 241 421 5 0 0 0 - - -;
#X obj 259 311 * 2;
#X obj 241 448 +;
#X obj 241 475 outlet;
#X obj 239 373 -;
#X text 368 128 Walk;
#X obj 416 255 f;
#X obj 376 157 random;
#X obj 423 129 * 2;
#X obj 376 188 -;
#X obj 377 282 +;
#X floatatom 377 310 5 0 0 0 - - -;
#X floatatom 377 242 5 0 0 0 - - -;
#X obj 377 214 t f b, f 6;
#X obj 335 40 inlet;
#X obj 406 40 inlet;
#X text 327 9 Low Lim;
#X text 394 10 High Lim;
#X obj 335 67 f \$3;
#X obj 406 77 f \$4;
#X floatatom 377 407 5 0 0 0 - - -;
#X obj 377 435 outlet;
#X obj 338 190 - 1;
#X obj 32 70 bng 15 250 50 0 empty empty empty 17 7 0 10 -262144 -1
-1;
#X floatatom 155 233 5 0 0 0 - - -;
#X obj 274 353 - 0;
#X floatatom 197 473 5 0 0 0 - - -;
#X obj 255 137 + 1;
#X obj 328 137 + 1;
#X obj 455 432 bng 15 250 50 0 empty empty empty 17 7 0 10 -262144
-1 -1;
#X obj 377 377 expr if ($f1 > $f2 \, $f1 - $f3 \, $f1);
#X obj 377 343 expr if ($f1 < $f2 \, $f1 + $f3 \, $f1);
#X obj 70 167 * 2;
#X obj 69 196 + 1;
#X obj 31 288 +;
#X obj 31 258 -;
#X text 181 9 Centre;
#X text 243 8 Deviation;
#X obj 32 226 random;
#X floatatom 98 231 5 0 0 0 - - -;
#X floatatom 91 280 5 0 0 0 - - -;
#X obj 337 100 expr if($f1 <= 0 \, 0 \, $f1);
#X obj 471 175 expr if($f1 >= 127 \, 127 \, $f1);
#X obj 470 145 expr if($f1 <= 0 \, 127 \, $f1);
#X connect 0 0 45 0;
#X connect 2 0 24 1;
#X connect 2 0 28 0;
#X connect 2 0 46 0;
#X connect 2 0 56 1;
#X connect 3 0 5 0;
#X connect 4 0 15 1;
#X connect 4 0 17 1;
#X connect 4 0 23 0;
#X connect 4 0 30 0;
#X connect 4 0 44 0;
#X connect 4 0 47 0;
#X connect 4 0 49 0;
#X connect 4 0 50 0;
#X connect 4 0 52 2;
#X connect 4 0 53 2;
#X connect 4 0 54 0;
#X connect 4 0 57 1;
#X connect 5 0 4 0;
#X connect 5 1 2 0;
#X connect 5 2 40 0;
#X connect 5 2 41 0;
#X connect 6 0 8 0;
#X connect 7 0 9 0;
#X connect 8 0 4 0;
#X connect 8 1 2 0;
#X connect 9 0 2 0;
#X connect 9 1 4 0;
#X connect 13 0 15 0;
#X connect 14 0 17 0;
#X connect 15 0 16 0;
#X connect 16 0 19 1;
#X connect 17 0 18 0;
#X connect 18 0 19 0;
#X connect 19 0 20 0;
#X connect 20 0 21 0;
#X connect 21 0 26 0;
#X connect 22 0 24 0;
#X connect 23 0 21 1;
#X connect 24 0 25 0;
#X connect 24 0 48 0;
#X connect 26 0 22 0;
#X connect 28 0 32 1;
#X connect 29 0 31 0;
#X connect 30 0 29 1;
#X connect 31 0 35 0;
#X connect 32 0 33 0;
#X connect 33 0 53 0;
#X connect 34 0 32 0;
#X connect 35 0 34 0;
#X connect 35 1 28 0;
#X connect 36 0 40 0;
#X connect 37 0 41 0;
#X connect 40 0 63 0;
#X connect 41 0 65 0;
#X connect 42 0 43 0;
#X connect 42 0 28 1;
#X connect 42 0 51 0;
#X connect 44 0 31 1;
#X connect 45 0 13 0;
#X connect 45 0 14 0;
#X connect 45 0 29 0;
#X connect 45 0 60 0;
#X connect 47 0 26 1;
#X connect 49 0 13 1;
#X connect 50 0 14 1;
#X connect 52 0 42 0;
#X connect 53 0 52 0;
#X connect 54 0 55 0;
#X connect 55 0 60 1;
#X connect 55 0 61 0;
#X connect 56 0 10 0;
#X connect 57 0 56 0;
#X connect 60 0 57 0;
#X connect 60 0 62 0;
#X connect 63 0 53 1;
#X connect 64 0 52 1;
#X connect 65 0 64 0;
