#N canvas 1530 339 770 469 12;
#X obj 94 233 f;
#X obj 129 233 + 1;
#X obj 43 206 t b b;
#X obj 43 181 until;
#X obj 42 153 t f b;
#X msg 111 202 0;
#X obj 131 21 inlet numbOfSteps;
#X obj 131 176 array size \$0-array;
#N canvas 0 22 450 278 (subpatch) 0;
#X array \$0-array 8 float 3;
#A 0 44 39 44 40 36 38 39 46;
#X coords 0 127 8 0 200 64 1 0 0;
#X restore 203 276 graph;
#X obj 419 57 max 0;
#X obj 472 95 sel 0;
#X floatatom 419 126 5 0 0 0 - - - 0;
#X obj 419 22 inlet rndRange;
#X obj 312 96 sel 0;
#X floatatom 295 123 5 0 0 0 - - - 0;
#X obj 295 23 inlet offset;
#X obj 580 100 sel 0;
#X floatatom 531 130 5 0 0 0 - - - 0;
#X obj 43 347 array set \$0-array;
#X obj 42 127 f 16;
#X obj 182 99 f \$1;
#X obj 580 73 f \$4;
#X obj 43 311 + 0;
#X obj 43 277 random 12;
#X obj 42 22 inlet gen;
#X obj 42 48 bng 15 250 50 0 empty empty empty 17 7 0 10 #fcfcfc #000000
#000000;
#X obj 181 125 sel 0;
#X obj 150 48 loadbang;
#X floatatom 131 151 5 0 0 0 - - - 0;
#X obj 626 196 bng 15 250 50 0 empty empty empty 17 7 0 10 #fcfcfc
#000000 #000000;
#X obj 678 21 inlet send;
#X obj 626 251 outlet;
#X obj 312 72 f \$2;
#X obj 472 71 f \$3;
#X obj 551 185 f 16;
#X obj 551 209 until;
#X obj 554 313 array get \$0-array;
#X obj 555 342 - 0;
#X obj 555 373 * 1;
#X obj 555 397 + 0;
#X obj 552 265 f;
#X obj 587 265 + 1;
#X msg 571 239 0;
#X obj 150 74 t b b;
#N canvas 0 22 450 278 (subpatch) 0;
#X array \$0-array2 8 float 3;
#A 0 60 45 60 48 36 42 45 66;
#X coords 0 127 8 0 200 64 1 0 0;
#X restore 203 360 graph;
#X obj 51 374 array set \$0-array2;
#X obj 555 424 array set \$0-array2;
#X obj 626 222 array get \$0-array2;
#X msg 615 288 1;
#X obj 553 290 t f f;
#X obj 650 289 loadbang;
#X obj 554 22 inlet expand;
#X obj 531 154 t b b b f;
#X obj 150 200 array size \$0-array2;
#X msg 581 128 1;
#X obj 42 72 t b b;
#X connect 0 0 1 0;
#X connect 0 0 18 1;
#X connect 0 0 45 1;
#X connect 1 0 0 1;
#X connect 2 0 23 0;
#X connect 2 1 0 0;
#X connect 3 0 2 0;
#X connect 4 0 3 0;
#X connect 4 1 5 0;
#X connect 5 0 0 1;
#X connect 6 0 28 0;
#X connect 9 0 11 0;
#X connect 10 1 11 0;
#X connect 11 0 23 1;
#X connect 12 0 9 0;
#X connect 13 1 14 0;
#X connect 14 0 22 1;
#X connect 14 0 37 1;
#X connect 14 0 39 1;
#X connect 15 0 14 0;
#X connect 16 0 54 0;
#X connect 16 1 17 0;
#X connect 17 0 52 0;
#X connect 19 0 4 0;
#X connect 20 0 26 0;
#X connect 21 0 16 0;
#X connect 22 0 18 0;
#X connect 22 0 45 0;
#X connect 23 0 22 0;
#X connect 24 0 25 0;
#X connect 25 0 55 0;
#X connect 26 1 28 0;
#X connect 27 0 43 0;
#X connect 28 0 7 0;
#X connect 28 0 19 1;
#X connect 28 0 53 0;
#X connect 29 0 47 0;
#X connect 30 0 29 0;
#X connect 32 0 13 0;
#X connect 33 0 10 0;
#X connect 34 0 35 0;
#X connect 35 0 40 0;
#X connect 36 0 37 0;
#X connect 37 0 38 0;
#X connect 38 0 39 0;
#X connect 39 0 46 0;
#X connect 40 0 41 0;
#X connect 40 0 49 0;
#X connect 41 0 40 1;
#X connect 42 0 40 1;
#X connect 43 0 19 0;
#X connect 43 1 20 0;
#X connect 43 1 32 0;
#X connect 43 1 33 0;
#X connect 43 1 21 0;
#X connect 47 0 31 0;
#X connect 48 0 36 1;
#X connect 49 0 36 0;
#X connect 49 1 46 1;
#X connect 50 0 48 0;
#X connect 51 0 17 0;
#X connect 52 0 29 0;
#X connect 52 1 34 0;
#X connect 52 2 42 0;
#X connect 52 3 38 1;
#X connect 54 0 17 0;
#X connect 55 0 17 0;
#X connect 55 1 19 0;
