#N canvas 538 554 756 519 12;
#X obj 94 233 f;
#X obj 129 233 + 1;
#X obj 43 206 t b b;
#X obj 43 181 until;
#X obj 42 153 t f b;
#X msg 111 202 0;
#X obj 131 176 array size \$0-array;
#N canvas 0 22 450 278 (subpatch) 0;
#X array \$0-array 4 float 3;
#A 0 65 63 64 69;
#X coords 0 127 4 0 200 64 1 0 0;
#X restore 301 361 graph;
#X obj 419 57 max 0;
#X obj 472 95 sel 0;
#X floatatom 419 126 5 0 0 0 - - - 0;
#X obj 312 96 sel 0;
#X floatatom 295 123 5 0 0 0 - - - 0;
#X obj 39 404 array set \$0-array;
#X obj 182 99 f \$1;
#X obj 43 277 random 12;
#X obj 42 22 inlet gen;
#X obj 42 48 bng 15 250 50 0 empty empty empty 17 7 0 10 #fcfcfc #000000
#000000;
#X obj 181 125 sel 0;
#X obj 150 48 loadbang;
#X floatatom 131 151 5 0 0 0 - - - 0;
#X obj 312 72 f \$2;
#X obj 472 71 f \$3;
#X obj 150 74 t b b;
#X obj 42 72 t b b;
#X obj 667 21 inlet send;
#X obj 585 437 outlet list;
#X obj 42 127 f 4;
#X obj 43 311 + 60;
#X obj 41 350 quant 0 1 2 3 4 5 6 7 8 9 10 11;
#X obj 558 21 inlet scale;
#X obj 585 357 bng 15 250 50 0 empty empty empty 17 7 0 10 #fcfcfc
#000000 #000000;
#X obj 585 383 array get \$0-array;
#X obj 131 21 inlet numbOfNotes;
#X obj 295 23 inlet minPitch;
#X obj 419 22 inlet pitchRange;
#X connect 0 0 1 0;
#X connect 0 0 13 1;
#X connect 1 0 0 1;
#X connect 2 0 15 0;
#X connect 2 1 0 0;
#X connect 3 0 2 0;
#X connect 4 0 3 0;
#X connect 4 1 5 0;
#X connect 5 0 0 1;
#X connect 8 0 10 0;
#X connect 9 1 10 0;
#X connect 10 0 15 1;
#X connect 11 1 12 0;
#X connect 12 0 28 1;
#X connect 14 0 18 0;
#X connect 15 0 28 0;
#X connect 16 0 17 0;
#X connect 17 0 24 0;
#X connect 18 1 20 0;
#X connect 19 0 23 0;
#X connect 20 0 6 0;
#X connect 20 0 27 1;
#X connect 21 0 11 0;
#X connect 22 0 9 0;
#X connect 23 0 27 0;
#X connect 23 1 14 0;
#X connect 23 1 21 0;
#X connect 23 1 22 0;
#X connect 24 1 27 0;
#X connect 25 0 31 0;
#X connect 27 0 4 0;
#X connect 27 0 6 0;
#X connect 28 0 29 0;
#X connect 29 0 13 0;
#X connect 30 0 29 1;
#X connect 31 0 32 0;
#X connect 32 0 26 0;
#X connect 33 0 20 0;
#X connect 34 0 12 0;
#X connect 35 0 8 0;
