#N canvas 1197 510 756 519 12;
#X obj 94 233 f;
#X obj 129 233 + 1;
#X obj 43 206 t b b;
#X obj 43 181 until;
#X obj 42 153 t f b;
#X msg 111 202 0;
#X obj 131 176 array size \$0-array;
#N canvas 0 22 450 278 (subpatch) 0;
#X array \$0-array 3 float 3;
#A 0 60 60 55;
#X coords 0 127 3 0 200 64 1 0 0;
#X restore 295 426 graph;
#X obj 419 57 max 0;
#X obj 472 95 sel 0;
#X floatatom 419 126 5 0 0 0 - - - 0;
#X obj 312 96 sel 0;
#X floatatom 284 122 5 0 0 0 - - - 0;
#X obj 39 404 array set \$0-array;
#X obj 182 99 f \$1;
#X obj 43 277 random 12;
#X obj 42 22 inlet gen;
#X obj 42 48 bng 15 250 50 0 empty empty empty 17 7 0 10 #fcfcfc #000000
#000000;
#X obj 181 125 sel 0;
#X obj 150 48 loadbang;
#X floatatom 131 151 5 0 0 0 - - - 0;
#X obj 312 72 f \$2;
#X obj 472 71 f \$3;
#X obj 150 74 t b b;
#X obj 42 72 t b b;
#X obj 667 21 inlet send;
#X obj 585 437 outlet list;
#X obj 42 127 f 4;
#X obj 43 311 + 60;
#X obj 41 350 quant 0 1 2 3 4 5 6 7 8 9 10 11;
#X obj 558 21 inlet scale;
#X obj 585 357 bng 15 250 50 0 empty empty empty 17 7 0 10 #fcfcfc
#000000 #000000;
#X obj 585 383 array get \$0-array;
#X obj 131 21 inlet numbOfNotes;
#X obj 419 22 inlet pitchRange;
#X obj 530 63 loadbang;
#X obj 544 228 pack 0 0 0 0 0 0 0 0 0 0 0 0;
#X msg 320 310 set \$1 \$2 \$3 \$4 \$5 \$6 \$7 \$8 \$9 \$10 \$11 \$12
;
#X obj 542 124 f \$4;
#X obj 581 124 f \$5;
#X obj 615 124 f \$6;
#X obj 652 125 f \$7;
#X obj 545 154 f \$8;
#X obj 581 155 f \$9;
#X obj 615 155 f \$10;
#X obj 659 155 f \$11;
#X obj 535 189 f \$12;
#X obj 577 190 f \$13;
#X obj 621 188 f \$14;
#X obj 669 187 f \$15;
#X msg 319 339 0 4 7 0 0 0 0 0 0 0 0 0;
#X obj 374 253 t a b;
#X floatatom 485 166 5 0 0 0 - - - 0;
#N canvas 150 175 235 216 accum 0;
#X obj 24 115 f;
#X obj 80 116 +;
#X obj 40 82 t b f;
#X msg 104 82 0;
#X obj 26 16 inlet;
#X obj 26 40 route bang float;
#X obj 23 148 outlet;
#X connect 0 0 1 0;
#X connect 0 0 6 0;
#X connect 1 0 0 1;
#X connect 2 0 0 0;
#X connect 2 1 1 1;
#X connect 3 0 0 1;
#X connect 3 0 1 1;
#X connect 4 0 5 0;
#X connect 5 0 0 0;
#X connect 5 1 2 0;
#X restore 429 217 pd accum;
#X obj 373 280 spigot 0;
#X obj 283 24 inlet cntralPitch;
#X connect 0 0 1 0;
#X connect 0 0 13 1;
#X connect 1 0 0 1;
#X connect 2 0 15 0;
#X connect 2 1 0 0;
#X connect 3 0 2 0;
#X connect 4 0 3 0;
#X connect 4 1 5 0;
#X connect 5 0 0 1;
#X connect 8 0 10 0;
#X connect 9 1 10 0;
#X connect 10 0 15 1;
#X connect 11 1 12 0;
#X connect 12 0 28 1;
#X connect 14 0 18 0;
#X connect 15 0 28 0;
#X connect 16 0 17 0;
#X connect 17 0 24 0;
#X connect 18 1 20 0;
#X connect 19 0 23 0;
#X connect 20 0 6 0;
#X connect 20 0 27 1;
#X connect 21 0 11 0;
#X connect 22 0 9 0;
#X connect 23 0 27 0;
#X connect 23 1 14 0;
#X connect 23 1 21 0;
#X connect 23 1 22 0;
#X connect 24 0 31 0;
#X connect 24 1 27 0;
#X connect 25 0 31 0;
#X connect 27 0 4 0;
#X connect 27 0 6 0;
#X connect 28 0 29 0;
#X connect 29 0 13 0;
#X connect 30 0 29 1;
#X connect 31 0 32 0;
#X connect 32 0 26 0;
#X connect 33 0 20 0;
#X connect 34 0 8 0;
#X connect 35 0 39 0;
#X connect 35 0 40 0;
#X connect 35 0 41 0;
#X connect 35 0 42 0;
#X connect 35 0 43 0;
#X connect 35 0 44 0;
#X connect 35 0 45 0;
#X connect 35 0 46 0;
#X connect 35 0 47 0;
#X connect 35 0 48 0;
#X connect 35 0 49 0;
#X connect 35 0 38 0;
#X connect 35 0 50 0;
#X connect 36 0 51 0;
#X connect 37 0 50 0;
#X connect 38 0 36 0;
#X connect 38 0 53 0;
#X connect 39 0 36 1;
#X connect 39 0 53 0;
#X connect 40 0 36 2;
#X connect 40 0 53 0;
#X connect 41 0 36 3;
#X connect 41 0 53 0;
#X connect 42 0 36 4;
#X connect 42 0 53 0;
#X connect 43 0 36 5;
#X connect 43 0 53 0;
#X connect 44 0 36 6;
#X connect 44 0 53 0;
#X connect 45 0 36 7;
#X connect 45 0 53 0;
#X connect 46 0 36 8;
#X connect 46 0 53 0;
#X connect 47 0 36 9;
#X connect 47 0 53 0;
#X connect 48 0 36 10;
#X connect 48 0 53 0;
#X connect 49 0 36 11;
#X connect 49 0 53 0;
#X connect 50 0 29 1;
#X connect 51 0 54 0;
#X connect 51 1 53 0;
#X connect 52 0 36 0;
#X connect 53 0 54 1;
#X connect 54 0 37 0;
#X connect 55 0 12 0;
