#N canvas 1477 414 768 373 12;
#X obj 94 204 f;
#X obj 129 204 + 1;
#X obj 43 177 t b b;
#X obj 43 152 until;
#X obj 42 124 t f b;
#X msg 111 173 0;
#X obj 131 21 inlet numbOfSteps;
#X obj 131 147 array size \$0-array;
#N canvas 0 22 450 278 (subpatch) 0;
#X array \$0-array 8 float 3;
#A 0 39 46 40 46 47 47 45 45;
#X coords 0 127 8 0 200 127 1 0 0;
#X restore 195 204 graph;
#X obj 419 57 max 0;
#X obj 472 95 sel 0;
#X floatatom 419 126 5 0 0 0 - - - 0;
#X obj 419 22 inlet rndRange;
#X obj 312 96 sel 0;
#X floatatom 295 123 5 0 0 0 - - - 0;
#X obj 295 23 inlet offset;
#X obj 580 100 sel 0;
#X floatatom 538 130 5 0 0 0 - - - 0;
#X obj 554 22 inlet multiply;
#X obj 43 318 array set \$0-array;
#X obj 42 98 f 16;
#X obj 150 71 f \$1;
#X obj 580 73 f \$4;
#X obj 43 282 + 0;
#X obj 43 248 random 12;
#X obj 42 20 inlet gen;
#X obj 42 46 bng 15 250 50 0 empty empty empty 17 7 0 10 #fcfcfc #000000
#000000;
#X obj 149 97 sel 0;
#X obj 149 46 loadbang;
#X obj 472 46 loadbang;
#X obj 312 46 loadbang;
#X obj 580 47 loadbang;
#X floatatom 131 122 5 0 0 0 - - - 0;
#X obj 582 261 bng 15 250 50 0 empty empty empty 17 7 0 10 #fcfcfc
#000000 #000000;
#X obj 678 21 inlet send;
#X obj 582 287 array get \$0-array;
#X obj 582 316 outlet;
#X obj 42 67 t b b;
#X obj 312 72 f \$2;
#X obj 472 71 f \$3;
#X obj 419 153 f;
#X obj 419 178 * 1;
#X obj 538 154 t b f;
#X obj 536 73 max 0;
#X connect 0 0 1 0;
#X connect 0 0 19 1;
#X connect 1 0 0 1;
#X connect 2 0 24 0;
#X connect 2 1 0 0;
#X connect 3 0 2 0;
#X connect 4 0 3 0;
#X connect 4 1 5 0;
#X connect 5 0 0 1;
#X connect 6 0 32 0;
#X connect 9 0 11 0;
#X connect 10 1 11 0;
#X connect 11 0 40 0;
#X connect 12 0 9 0;
#X connect 13 1 14 0;
#X connect 14 0 23 1;
#X connect 15 0 14 0;
#X connect 16 1 17 0;
#X connect 17 0 42 0;
#X connect 18 0 43 0;
#X connect 20 0 4 0;
#X connect 21 0 27 0;
#X connect 22 0 16 0;
#X connect 23 0 19 0;
#X connect 24 0 23 0;
#X connect 25 0 26 0;
#X connect 26 0 37 0;
#X connect 27 1 32 0;
#X connect 28 0 21 0;
#X connect 29 0 39 0;
#X connect 30 0 38 0;
#X connect 31 0 22 0;
#X connect 32 0 7 0;
#X connect 32 0 20 1;
#X connect 33 0 35 0;
#X connect 34 0 33 0;
#X connect 35 0 36 0;
#X connect 37 0 33 0;
#X connect 37 1 20 0;
#X connect 38 0 13 0;
#X connect 39 0 10 0;
#X connect 40 0 41 0;
#X connect 41 0 24 1;
#X connect 42 0 40 0;
#X connect 42 1 41 1;
#X connect 43 0 17 0;
