#N canvas 1251 99 684 1006 12;
#X obj 61 570 vline~;
#X floatatom 161 452 8 0 0 0 - - - 0;
#X obj 61 414 f;
#X msg 144 509 stop;
#X msg 291 506 \$1 100;
#X obj 161 481 / 1;
#X floatatom 196 481 5 0.5 2 0 - - - 0;
#X obj 254 432 hsl 50 15 0.1 2 0 0 empty empty Speed -2 -8 0 10 #fcfcc4
#000000 #000000 0 1;
#X obj 194 426 t b f;
#X obj 114 369 bng 15 250 50 0 empty empty empty 17 7 0 10 #fcfcfc
#000000 #000000;
#X obj 97 391 expr (max($f1 \, $f2) - min($f1 \, $f2)) / $f3;
#X obj 61 506 pack 0 f f;
#X msg 61 533 \$1 \, \$2 \$3;
#X obj 23 343 delay 3;
#X obj 58 253 t b b f;
#X floatatom 58 227 5 0 0 0 - - - 0;
#X obj 115 279 moses 12;
#X obj 158 234 sel 0;
#X obj 61 635 *~ 0.8;
#X obj 48 909 outlet~;
#X obj 61 599 tabread4~;
#X msg 75 165 60;
#X obj 75 138 loadbang;
#X obj 58 197 f;
#X floatatom 92 342 5 0 0 0 - - - 0;
#X floatatom 289 313 5 0 0 0 - - - 0;
#X obj 94 695 vline~;
#X obj 55 725 *~;
#X msg 95 668 0 3 \, 1 0 3;
#X obj 313 116 clip 0.1 127;
#X obj 143 6 inlet;
#X floatatom 62 82 5 0 127 2 Pitch - - 0;
#X floatatom 114 83 5 0 1 2 Vol - - 0;
#X floatatom 208 83 5 0 0 2 sRate - - 0;
#X floatatom 257 85 5 0 0 2 arrayID - - 0;
#X floatatom 367 84 5 0 0 2 start - - 0;
#X floatatom 313 86 5 0 127 2 Speed - - 0;
#X floatatom 422 83 5 0 0 2 End - - 0;
#X floatatom 538 162 5 0 1 2 Scrub - - 0;
#X obj 149 150 / 127;
#X obj 147 178 pow 1.3;
#X msg 387 351 44.1;
#X obj 387 323 loadbang;
#X obj 210 341 t b f;
#N canvas 1148 454 559 388 midi-p-shift 0;
#X obj 24 4 inlet midi-pitch;
#X obj 24 338 outlet playback-speed;
#X msg 41 59 1 1.059 1.122 1.189 1.26 1.334 1.414 1.498 1.578 1.682
1.782 1.888, f 68;
#N canvas 0 22 450 278 (subpatch) 0;
#X array \$0-pitch-ratios 12 float 3;
#A 0 1 1.059 1.122 1.189 1.26 1.334 1.414 1.498 1.578 1.682 1.782 1.888
;
#X coords 0 2 12 1 120 50 1 0 0;
#X restore 246 108 graph;
#X obj 41 88 array set \$0-pitch-ratios;
#X obj 40 32 loadbang;
#X obj 71 189 array get \$0-pitch-ratios;
#X floatatom 71 218 5 0 0 0 - - - 0;
#X floatatom 24 231 5 0 0 0 - - - 0;
#X floatatom 24 307 5 0 0 0 - - - 0;
#X floatatom 24 158 5 0 127 0 - - - 0;
#X obj 24 181 / 12;
#X obj 24 205 int;
#X obj 24 256 - 2;
#X obj 24 281 expr (pow(2 \, $f1) / 8.0) * $f2;
#X obj 71 160 % 12;
#X obj 24 118 t f f;
#X connect 0 0 16 0;
#X connect 2 0 4 0;
#X connect 5 0 2 0;
#X connect 6 0 7 0;
#X connect 7 0 14 1;
#X connect 8 0 13 0;
#X connect 9 0 1 0;
#X connect 10 0 11 0;
#X connect 11 0 12 0;
#X connect 12 0 8 0;
#X connect 13 0 14 0;
#X connect 14 0 9 0;
#X connect 15 0 6 0;
#X connect 16 0 10 0;
#X connect 16 1 15 0;
#X restore 168 311 pd midi-p-shift;
#X floatatom 479 79 5 0 0 2 pan - - 0;
#X obj 50 853 panner~;
#X obj 120 908 outlet~;
#X obj 187 738 vline~;
#X obj 54 758 *~;
#X obj 187 634 bng 15 250 50 0 empty empty empty 17 7 0 10 #fcfcfc
#000000 #000000;
#X floatatom 207 630 5 0 0 0 - - - 0;
#X obj 208 599 r lct-sample-release;
#X obj 304 698 unpack f f;
#X floatatom 307 737 5 0 0 0 - - - 0;
#X floatatom 369 737 5 0 0 0 - - - 0;
#X obj 187 664 pack 0 1e+06;
#X msg 187 693 1 3 \, 0 \$1 \$2;
#X msg 258 633 4;
#X floatatom 528 79 5 0 0 2 chan - - 0;
#X obj 439 671 *~ 0.8;
#X obj 439 635 tabread4~;
#X obj 437 767 *~;
#X obj 436 811 *~;
#X msg 196 563 set \$1-sampleDataL;
#X msg 439 594 set \$1-sampleDataR;
#X obj 185 826 *~ 0;
#X obj 52 823 *~ 1;
#X obj 78 799 == 1;
#X obj 209 796 == 2;
#X obj 542 740 delay 0;
#X obj 542 771 bng 15 250 50 0 empty empty empty 17 7 0 10 #fcfcfc
#000000 #000000;
#X obj 542 898 outlet;
#X floatatom 582 79 5 0 0 2 voice - - 0;
#X obj 143 30 unpack f f f f f f f f f f;
#X obj 542 833 f;
#X text 548 871 Voice Numb at end;
#X connect 0 0 20 0;
#X connect 0 0 61 0;
#X connect 1 0 5 0;
#X connect 2 0 11 0;
#X connect 3 0 0 0;
#X connect 4 0 0 0;
#X connect 5 0 11 2;
#X connect 5 0 70 1;
#X connect 6 0 5 1;
#X connect 7 0 8 0;
#X connect 8 0 1 0;
#X connect 8 1 6 0;
#X connect 9 0 10 0;
#X connect 10 0 1 0;
#X connect 11 0 12 0;
#X connect 12 0 0 0;
#X connect 13 0 2 0;
#X connect 14 0 13 0;
#X connect 14 0 70 0;
#X connect 14 1 28 0;
#X connect 14 2 16 0;
#X connect 15 0 14 0;
#X connect 16 0 8 0;
#X connect 16 1 44 0;
#X connect 17 0 3 0;
#X connect 18 0 27 0;
#X connect 20 0 18 0;
#X connect 21 0 23 1;
#X connect 22 0 21 0;
#X connect 23 0 15 0;
#X connect 24 0 10 0;
#X connect 24 0 2 1;
#X connect 25 0 43 0;
#X connect 26 0 27 1;
#X connect 26 0 62 1;
#X connect 27 0 49 0;
#X connect 28 0 26 0;
#X connect 29 0 23 1;
#X connect 30 0 74 0;
#X connect 31 0 23 0;
#X connect 32 0 39 0;
#X connect 33 0 10 2;
#X connect 34 0 64 0;
#X connect 34 0 65 0;
#X connect 35 0 24 0;
#X connect 36 0 29 0;
#X connect 37 0 25 0;
#X connect 38 0 4 0;
#X connect 39 0 40 0;
#X connect 40 0 17 0;
#X connect 40 0 18 1;
#X connect 40 0 60 1;
#X connect 41 0 10 2;
#X connect 42 0 41 0;
#X connect 43 0 9 0;
#X connect 43 1 11 1;
#X connect 43 1 10 1;
#X connect 44 0 8 0;
#X connect 45 0 46 1;
#X connect 46 0 19 0;
#X connect 46 1 47 0;
#X connect 48 0 49 1;
#X connect 48 0 63 1;
#X connect 49 0 66 0;
#X connect 49 0 67 0;
#X connect 50 0 56 0;
#X connect 51 0 56 0;
#X connect 52 0 51 0;
#X connect 52 0 58 0;
#X connect 53 0 54 0;
#X connect 53 1 55 0;
#X connect 56 0 57 0;
#X connect 56 0 53 0;
#X connect 57 0 48 0;
#X connect 58 0 56 1;
#X connect 59 0 68 0;
#X connect 59 0 69 0;
#X connect 60 0 62 0;
#X connect 61 0 60 0;
#X connect 62 0 63 0;
#X connect 64 0 20 0;
#X connect 65 0 61 0;
#X connect 66 0 19 0;
#X connect 66 0 47 0;
#X connect 67 0 46 0;
#X connect 68 0 67 1;
#X connect 69 0 66 1;
#X connect 70 0 71 0;
#X connect 71 0 75 0;
#X connect 73 0 75 1;
#X connect 74 0 31 0;
#X connect 74 0 50 0;
#X connect 74 1 32 0;
#X connect 74 2 33 0;
#X connect 74 3 34 0;
#X connect 74 4 36 0;
#X connect 74 5 35 0;
#X connect 74 6 37 0;
#X connect 74 7 45 0;
#X connect 74 8 59 0;
#X connect 74 9 73 0;
#X connect 75 0 72 0;
