#N canvas 300 337 1028 735 12;
#X obj 254 160 soundfiler;
#X floatatom 306 195 8 0 0 2 \ Samples - - 0;
#X floatatom 301 315 8 0 0 2 \ Millis - - 0;
#X floatatom 409 212 5 0 0 2 samplerate - - 0;
#X obj 303 278 / 44.1;
#X obj 450 86 f \$0;
#X obj 373 14 array define \$0-sampleData;
#X msg 254 137 read -resize \$1 \$2-sampleData;
#X obj 254 111 pack s f;
#X msg 266 40 samples/hello.wav;
#X obj 449 37 loadbang;
#X obj 409 233 * 0.001;
#X obj 254 16 inlet name;
#X obj 49 517 vline~;
#X floatatom 149 399 8 0 0 0 - - - 0;
#X obj 49 361 f;
#X msg 132 456 stop;
#X msg 177 480 \$1 100;
#X obj 149 428 / 1;
#X floatatom 184 428 5 0.5 2 0 - - - 0;
#X obj 242 379 hsl 50 15 0.1 2 0 0 empty empty Speed -2 -8 0 10 #fcfcc4
#000000 #000000 0 1;
#X obj 687 15 inlet start%;
#X obj 687 90 *;
#X floatatom 687 64 5 0 1 1 0-1 - - 0;
#X floatatom 687 122 8 0 0 0 - - - 0;
#X obj 687 149 s \$0-start;
#X obj 79 281 r \$0-start;
#X floatatom 800 90 5 0 1 1 samples - - 0;
#X floatatom 800 155 8 0 0 0 - - - 0;
#X obj 799 17 inlet end%;
#X obj 800 182 s \$0-end;
#X obj 215 298 r \$0-end;
#X obj 82 413 r \$0-end;
#X obj 578 17 inlet speed;
#X floatatom 578 42 5 0 10 0 - - - 0;
#X obj 152 365 t b f;
#X obj 909 17 inlet scrub;
#X obj 909 94 *;
#X floatatom 909 67 5 0 1 1 0-1 - - 0;
#X floatatom 909 125 8 0 0 0 - - - 0;
#X obj 909 152 s \$0-scrub;
#X obj 177 455 r \$0-scrub;
#X obj 708 39 t b f;
#X obj 800 61 t b f;
#X obj 165 312 bng 15 250 50 0 empty empty empty 17 7 0 10 #fcfcfc
#000000 #000000;
#X obj 85 338 expr (max($f1 \, $f2) - min($f1 \, $f2)) / $f3;
#X obj 49 688 outlet~;
#X obj 139 17 inlet velocity;
#X obj 139 70 / 127;
#X obj 139 44 clip 0 127;
#X obj 800 124 * 1;
#X obj 49 546 tabread4~ \$0-sampleData;
#X obj 49 659 *~ 0.8;
#X obj 49 453 pack 0 f f;
#X floatatom 800 39 5 0 1 0 - - - 0;
#X msg 49 480 \$1 \, \$2 \$3;
#X obj 67 601 vline~;
#X obj 49 626 *~;
#X msg 79 574 0 3 \, 1 0 3;
#X obj 11 290 delay 3;
#N canvas 225 844 689 464 midi-p-shift 0;
#X obj 36 24 inlet midi-pitch;
#X obj 27 388 outlet playback-speed;
#X obj 37 64 moses 60;
#X obj 90 97 expr ($f1 - 60) * (1 / 12.0) + 1;
#X obj 47 125 moses 48;
#X obj 99 156 expr 1 - (60.0 - $f1) / 24;
#X obj 48 186 moses 36;
#X obj 101 213 expr 0.5 - (48.0 - $f1) / 48;
#X obj 46 249 moses 24;
#X obj 99 276 expr 0.25 - (36.0 - $f1) / 96;
#X obj 69 316 moses 12;
#X obj 122 343 expr 0.125 - (24.0 - $f1) / 192;
#X msg 66 356 0.062;
#X connect 0 0 2 0;
#X connect 2 0 4 0;
#X connect 2 1 3 0;
#X connect 3 0 1 0;
#X connect 4 0 6 0;
#X connect 4 1 5 0;
#X connect 5 0 1 0;
#X connect 6 0 8 0;
#X connect 6 1 7 0;
#X connect 7 0 1 0;
#X connect 8 0 10 0;
#X connect 8 1 9 0;
#X connect 9 0 1 0;
#X connect 10 0 12 0;
#X connect 10 1 11 0;
#X connect 12 0 1 0;
#X restore 156 257 pd midi-p-shift;
#X obj 46 200 t b b f;
#X floatatom 46 167 5 0 0 0 - - - 0;
#X msg 64 103 60;
#X obj 64 76 loadbang;
#X obj 47 16 inlet pitch;
#X obj 578 111 moses 12;
#X obj 578 85 clip 0.1 127;
#X floatatom 581 203 5 0 0 0 - - - 0;
#X obj 46 135 f;
#X obj 103 226 moses 12;
#N canvas 870 113 175 171 parseName 0;
#X obj 40 42 symbol \$1;
#X obj 38 123 outlet;
#X obj 39 96 list trim;
#X obj 40 68 pack s;
#X obj 40 12 inlet;
#X connect 0 0 3 0;
#X connect 2 0 1 0;
#X connect 3 0 2 0;
#X connect 4 0 0 0;
#X restore 282 72 pd parseName;
#X obj 450 61 t b b;
#X obj 137 98 pow 1.3;
#X obj 143 175 sel 0;
#X connect 0 0 1 0;
#X connect 0 0 4 0;
#X connect 0 1 3 0;
#X connect 1 0 42 0;
#X connect 1 0 37 1;
#X connect 1 0 27 0;
#X connect 2 0 14 0;
#X connect 3 0 11 0;
#X connect 4 0 2 0;
#X connect 5 0 8 1;
#X connect 7 0 0 0;
#X connect 8 0 7 0;
#X connect 9 0 8 0;
#X connect 10 0 72 0;
#X connect 11 0 4 1;
#X connect 11 0 45 2;
#X connect 12 0 8 0;
#X connect 13 0 51 0;
#X connect 14 0 18 0;
#X connect 15 0 53 0;
#X connect 16 0 13 0;
#X connect 17 0 13 0;
#X connect 18 0 53 2;
#X connect 19 0 18 1;
#X connect 20 0 35 0;
#X connect 21 0 23 0;
#X connect 22 0 24 0;
#X connect 23 0 22 0;
#X connect 24 0 25 0;
#X connect 26 0 15 1;
#X connect 26 0 45 0;
#X connect 27 0 50 0;
#X connect 28 0 30 0;
#X connect 29 0 54 0;
#X connect 31 0 44 0;
#X connect 31 0 45 1;
#X connect 32 0 53 1;
#X connect 33 0 34 0;
#X connect 34 0 67 0;
#X connect 35 0 14 0;
#X connect 35 1 19 0;
#X connect 36 0 38 0;
#X connect 37 0 39 0;
#X connect 38 0 37 0;
#X connect 39 0 40 0;
#X connect 41 0 17 0;
#X connect 42 0 23 0;
#X connect 42 1 22 1;
#X connect 43 0 27 0;
#X connect 43 1 50 1;
#X connect 44 0 45 0;
#X connect 45 0 14 0;
#X connect 47 0 49 0;
#X connect 48 0 73 0;
#X connect 49 0 48 0;
#X connect 49 0 74 0;
#X connect 50 0 28 0;
#X connect 51 0 57 0;
#X connect 52 0 46 0;
#X connect 53 0 55 0;
#X connect 54 0 43 0;
#X connect 55 0 13 0;
#X connect 56 0 57 1;
#X connect 57 0 52 0;
#X connect 58 0 56 0;
#X connect 59 0 15 0;
#X connect 60 0 35 0;
#X connect 61 0 59 0;
#X connect 61 1 58 0;
#X connect 61 2 70 0;
#X connect 62 0 61 0;
#X connect 63 0 69 1;
#X connect 64 0 63 0;
#X connect 65 0 69 0;
#X connect 66 0 35 0;
#X connect 66 0 68 0;
#X connect 66 1 60 0;
#X connect 67 0 66 0;
#X connect 67 0 69 1;
#X connect 69 0 62 0;
#X connect 70 0 35 0;
#X connect 70 1 60 0;
#X connect 71 0 8 0;
#X connect 72 0 71 0;
#X connect 72 1 5 0;
#X connect 73 0 52 1;
#X connect 74 0 16 0;
