#N canvas 729 289 541 800 12;
#X obj 61 570 vline~;
#X floatatom 161 452 8 0 0 0 - - - 0;
#X obj 61 414 f;
#X msg 144 509 stop;
#X msg 291 506 \$1 100;
#X obj 161 481 / 1;
#X floatatom 196 481 5 0.5 2 0 - - - 0;
#X obj 254 432 hsl 50 15 0.1 2 0 0 empty empty Speed -2 -8 0 10 #fcfcc4
#000000 #000000 0 1;
#X obj 194 426 t b f;
#X obj 114 369 bng 15 250 50 0 empty empty empty 17 7 0 10 #fcfcfc
#000000 #000000;
#X obj 97 391 expr (max($f1 \, $f2) - min($f1 \, $f2)) / $f3;
#X obj 61 506 pack 0 f f;
#X msg 61 533 \$1 \, \$2 \$3;
#X obj 23 343 delay 3;
#N canvas 650 532 467 701 midi-p-shift 0;
#X obj 38 16 inlet midi-pitch;
#X obj 27 585 outlet playback-speed;
#X obj 42 259 moses 60;
#X obj 52 320 moses 48;
#X obj 53 381 moses 36;
#X obj 51 444 moses 24;
#X obj 74 511 moses 12;
#X obj 127 538 expr 0.125 - (24.0 - $f1) / 192;
#X msg 66 553 0.062;
#X obj 95 292 expr ($f1 - 60) * (1.0 / 12.0) + 1;
#X obj 104 351 expr 1 - (60.0 - $f1) / 24;
#X obj 104 471 expr 0.25 - (36.0 - $f1) / 96;
#X obj 106 408 expr 0.5 - (48.0 - $f1) / 48;
#X obj 43 200 moses 72;
#X obj 87 232 expr ($f1 - 72) * (1 / 6.0) + 2;
#X obj 45 133 moses 84;
#X obj 89 165 expr ($f1 - 84) * (1 / 3.0) + 4;
#X obj 43 59 moses 96;
#X obj 87 91 expr ($f1 - 96) * (1 / 1.5) + 8;
#X connect 0 0 17 0;
#X connect 2 0 3 0;
#X connect 2 1 9 0;
#X connect 3 0 4 0;
#X connect 3 1 10 0;
#X connect 4 0 5 0;
#X connect 4 1 12 0;
#X connect 5 0 6 0;
#X connect 5 1 11 0;
#X connect 6 0 8 0;
#X connect 6 1 7 0;
#X connect 8 0 1 0;
#X connect 9 0 1 0;
#X connect 10 0 1 0;
#X connect 11 0 1 0;
#X connect 12 0 1 0;
#X connect 13 0 2 0;
#X connect 13 1 14 0;
#X connect 14 0 1 0;
#X connect 15 0 13 0;
#X connect 15 1 16 0;
#X connect 16 0 1 0;
#X connect 17 0 15 0;
#X connect 17 1 18 0;
#X connect 18 0 1 0;
#X restore 168 310 pd midi-p-shift;
#X obj 58 253 t b b f;
#X floatatom 58 227 5 0 0 0 - - - 0;
#X obj 115 279 moses 12;
#X obj 158 234 sel 0;
#X obj 61 635 *~ 0.8;
#X obj 54 763 outlet~;
#X obj 61 599 tabread4~;
#X msg 196 563 set \$1-sampleData;
#X msg 75 165 60;
#X obj 75 138 loadbang;
#X obj 58 197 f;
#X floatatom 92 342 5 0 0 0 - - - 0;
#X floatatom 289 313 5 0 0 0 - - - 0;
#X obj 73 700 vline~;
#X obj 55 725 *~;
#X msg 95 672 0 3 \, 1 0 3;
#X obj 313 116 clip 0.1 127;
#X obj 143 6 inlet;
#X floatatom 62 82 5 0 127 2 Pitch - - 0;
#X floatatom 114 83 5 0 1 2 Vol - - 0;
#X floatatom 208 83 5 0 0 2 sRate - - 0;
#X floatatom 257 85 5 0 0 2 arrayID - - 0;
#X floatatom 367 84 5 0 0 2 start - - 0;
#X floatatom 313 86 5 0 127 2 Speed - - 0;
#X floatatom 422 83 5 0 0 2 End - - 0;
#X floatatom 468 84 5 0 1 2 Scrub - - 0;
#X obj 149 150 / 127;
#X obj 147 178 pow 1.3;
#X msg 387 351 44.1;
#X obj 387 323 loadbang;
#X obj 210 341 t b f;
#X obj 143 30 unpack f f f f f f f f;
#X connect 0 0 21 0;
#X connect 1 0 5 0;
#X connect 2 0 11 0;
#X connect 3 0 0 0;
#X connect 4 0 0 0;
#X connect 5 0 11 2;
#X connect 6 0 5 1;
#X connect 7 0 8 0;
#X connect 8 0 1 0;
#X connect 8 1 6 0;
#X connect 9 0 10 0;
#X connect 10 0 1 0;
#X connect 11 0 12 0;
#X connect 12 0 0 0;
#X connect 13 0 2 0;
#X connect 14 0 8 0;
#X connect 15 0 13 0;
#X connect 15 1 30 0;
#X connect 15 2 17 0;
#X connect 16 0 15 0;
#X connect 17 0 8 0;
#X connect 17 1 14 0;
#X connect 18 0 3 0;
#X connect 19 0 29 0;
#X connect 21 0 19 0;
#X connect 22 0 21 0;
#X connect 23 0 25 1;
#X connect 24 0 23 0;
#X connect 25 0 16 0;
#X connect 26 0 10 0;
#X connect 26 0 2 1;
#X connect 27 0 45 0;
#X connect 28 0 29 1;
#X connect 29 0 20 0;
#X connect 30 0 28 0;
#X connect 31 0 25 1;
#X connect 32 0 46 0;
#X connect 33 0 25 0;
#X connect 34 0 41 0;
#X connect 35 0 10 2;
#X connect 36 0 22 0;
#X connect 37 0 26 0;
#X connect 38 0 31 0;
#X connect 39 0 27 0;
#X connect 40 0 4 0;
#X connect 41 0 42 0;
#X connect 42 0 18 0;
#X connect 42 0 19 1;
#X connect 43 0 10 2;
#X connect 44 0 43 0;
#X connect 45 0 9 0;
#X connect 45 1 11 1;
#X connect 45 1 10 1;
#X connect 46 0 33 0;
#X connect 46 1 34 0;
#X connect 46 2 35 0;
#X connect 46 3 36 0;
#X connect 46 4 38 0;
#X connect 46 5 37 0;
#X connect 46 6 39 0;
#X connect 46 7 40 0;
