#N canvas 918 338 632 912 12;
#X obj 61 570 vline~;
#X floatatom 161 452 8 0 0 0 - - - 0;
#X obj 61 414 f;
#X msg 144 509 stop;
#X msg 291 506 \$1 100;
#X obj 161 481 / 1;
#X floatatom 196 481 5 0.5 2 0 - - - 0;
#X obj 254 432 hsl 50 15 0.1 2 0 0 empty empty Speed -2 -8 0 10 #fcfcc4
#000000 #000000 0 1;
#X obj 194 426 t b f;
#X obj 114 369 bng 15 250 50 0 empty empty empty 17 7 0 10 #fcfcfc
#000000 #000000;
#X obj 97 391 expr (max($f1 \, $f2) - min($f1 \, $f2)) / $f3;
#X obj 61 506 pack 0 f f;
#X msg 61 533 \$1 \, \$2 \$3;
#X obj 23 343 delay 3;
#X obj 58 253 t b b f;
#X floatatom 58 227 5 0 0 0 - - - 0;
#X obj 115 279 moses 12;
#X obj 158 234 sel 0;
#X obj 61 635 *~ 0.8;
#X obj 51 833 outlet~;
#X obj 61 599 tabread4~;
#X msg 196 563 set \$1-sampleData;
#X msg 75 165 60;
#X obj 75 138 loadbang;
#X obj 58 197 f;
#X floatatom 92 342 5 0 0 0 - - - 0;
#X floatatom 289 313 5 0 0 0 - - - 0;
#X obj 73 700 vline~;
#X obj 55 725 *~;
#X msg 95 672 0 3 \, 1 0 3;
#X obj 313 116 clip 0.1 127;
#X obj 143 6 inlet;
#X floatatom 62 82 5 0 127 2 Pitch - - 0;
#X floatatom 114 83 5 0 1 2 Vol - - 0;
#X floatatom 208 83 5 0 0 2 sRate - - 0;
#X floatatom 257 85 5 0 0 2 arrayID - - 0;
#X floatatom 367 84 5 0 0 2 start - - 0;
#X floatatom 313 86 5 0 127 2 Speed - - 0;
#X floatatom 422 83 5 0 0 2 End - - 0;
#X floatatom 538 162 5 0 1 2 Scrub - - 0;
#X obj 149 150 / 127;
#X obj 147 178 pow 1.3;
#X msg 387 351 44.1;
#X obj 387 323 loadbang;
#X obj 210 341 t b f;
#N canvas 240 315 611 742 midi-p-shift 0;
#X obj 37 7 inlet midi-pitch;
#X obj 48 693 outlet playback-speed;
#X obj 40 350 moses 60;
#X obj 45 438 moses 48;
#X obj 50 511 moses 36;
#X obj 49 594 moses 24;
#X msg 96 67 1 1.059 1.122 1.189 1.26 1.334 1.414 1.498 1.578 1.682
1.782 1.888, f 68;
#N canvas 0 22 450 278 (subpatch) 0;
#X array \$0-pitch-ratios 12 float 3;
#A 0 1 1.059 1.122 1.189 1.26 1.334 1.414 1.498 1.578 1.682 1.782 1.888
;
#X coords 0 2 12 1 120 50 1 0 0;
#X restore 373 122 graph;
#X obj 96 94 array set \$0-pitch-ratios;
#X obj 95 40 loadbang;
#X obj 93 375 t f f;
#X obj 294 316 array get \$0-pitch-ratios;
#X obj 153 383 - 60;
#X floatatom 316 352 5 0 0 0 - - - 0;
#X obj 91 412 expr $f2;
#X obj 149 458 - 48;
#X obj 97 483 expr 0.5 * $f2;
#X obj 154 533 - 36;
#X obj 104 559 expr 0.25 * $f2;
#X obj 151 620 - 24;
#X obj 99 648 expr 0.125 * $f2;
#X obj 97 461 t f f;
#X obj 103 535 t f f;
#X obj 100 621 t f f;
#X obj 112 293 t f f;
#X obj 59 268 moses 72;
#X obj 170 292 - 72;
#X obj 113 321 expr 2 * $f2;
#X obj 132 223 t f f;
#X obj 79 198 moses 84;
#X obj 190 222 - 84;
#X obj 133 251 expr 4 * $f2;
#X obj 146 153 t f f;
#X obj 93 128 moses 96;
#X obj 204 152 - 96;
#X obj 147 181 expr 8 * $f2;
#X connect 0 0 33 0;
#X connect 2 0 3 0;
#X connect 2 1 10 0;
#X connect 3 0 4 0;
#X connect 3 1 21 0;
#X connect 4 0 5 0;
#X connect 4 1 22 0;
#X connect 5 1 23 0;
#X connect 6 0 8 0;
#X connect 9 0 6 0;
#X connect 10 0 14 0;
#X connect 10 1 12 0;
#X connect 11 0 13 0;
#X connect 11 0 14 1;
#X connect 11 0 16 1;
#X connect 11 0 18 1;
#X connect 11 0 20 1;
#X connect 11 0 27 1;
#X connect 11 0 31 1;
#X connect 11 0 35 1;
#X connect 12 0 11 0;
#X connect 14 0 1 0;
#X connect 15 0 11 0;
#X connect 16 0 1 0;
#X connect 17 0 11 0;
#X connect 18 0 1 0;
#X connect 19 0 11 0;
#X connect 20 0 1 0;
#X connect 21 0 16 0;
#X connect 21 1 15 0;
#X connect 22 0 18 0;
#X connect 22 1 17 0;
#X connect 23 0 20 0;
#X connect 23 1 19 0;
#X connect 24 0 27 0;
#X connect 24 1 26 0;
#X connect 25 0 2 0;
#X connect 25 1 24 0;
#X connect 26 0 11 0;
#X connect 27 0 1 0;
#X connect 28 0 31 0;
#X connect 28 1 30 0;
#X connect 29 0 25 0;
#X connect 29 1 28 0;
#X connect 30 0 11 0;
#X connect 31 0 1 0;
#X connect 32 0 35 0;
#X connect 32 1 34 0;
#X connect 33 0 29 0;
#X connect 33 1 32 0;
#X connect 34 0 11 0;
#X connect 35 0 1 0;
#X restore 168 311 pd midi-p-shift;
#X floatatom 479 79 5 0 0 2 pan - - 0;
#X obj 54 789 panner~;
#X obj 123 832 outlet~;
#X obj 143 30 unpack f f f f f f f f;
#X obj 229 718 vline~;
#X obj 54 758 *~;
#X obj 231 626 bng 15 250 50 0 empty empty empty 17 7 0 10 #fcfcfc
#000000 #000000;
#X floatatom 251 622 5 0 0 0 - - - 0;
#X obj 252 591 r lct-sample-release;
#X obj 348 690 unpack f f;
#X floatatom 351 729 5 0 0 0 - - - 0;
#X floatatom 413 729 5 0 0 0 - - - 0;
#X obj 231 656 pack 0 1e+06;
#X msg 231 685 1 3 \, 0 \$1 \$2;
#X msg 302 625 4;
#X connect 0 0 20 0;
#X connect 1 0 5 0;
#X connect 2 0 11 0;
#X connect 3 0 0 0;
#X connect 4 0 0 0;
#X connect 5 0 11 2;
#X connect 6 0 5 1;
#X connect 7 0 8 0;
#X connect 8 0 1 0;
#X connect 8 1 6 0;
#X connect 9 0 10 0;
#X connect 10 0 1 0;
#X connect 11 0 12 0;
#X connect 12 0 0 0;
#X connect 13 0 2 0;
#X connect 14 0 13 0;
#X connect 14 1 29 0;
#X connect 14 2 16 0;
#X connect 15 0 14 0;
#X connect 16 0 8 0;
#X connect 16 1 45 0;
#X connect 17 0 3 0;
#X connect 18 0 28 0;
#X connect 20 0 18 0;
#X connect 21 0 20 0;
#X connect 22 0 24 1;
#X connect 23 0 22 0;
#X connect 24 0 15 0;
#X connect 25 0 10 0;
#X connect 25 0 2 1;
#X connect 26 0 44 0;
#X connect 27 0 28 1;
#X connect 28 0 51 0;
#X connect 29 0 27 0;
#X connect 30 0 24 1;
#X connect 31 0 49 0;
#X connect 32 0 24 0;
#X connect 33 0 40 0;
#X connect 34 0 10 2;
#X connect 35 0 21 0;
#X connect 36 0 25 0;
#X connect 37 0 30 0;
#X connect 38 0 26 0;
#X connect 39 0 4 0;
#X connect 40 0 41 0;
#X connect 41 0 17 0;
#X connect 41 0 18 1;
#X connect 42 0 10 2;
#X connect 43 0 42 0;
#X connect 44 0 9 0;
#X connect 44 1 11 1;
#X connect 44 1 10 1;
#X connect 45 0 8 0;
#X connect 46 0 47 1;
#X connect 47 0 19 0;
#X connect 47 1 48 0;
#X connect 49 0 32 0;
#X connect 49 0 52 0;
#X connect 49 1 33 0;
#X connect 49 2 34 0;
#X connect 49 3 35 0;
#X connect 49 4 37 0;
#X connect 49 5 36 0;
#X connect 49 6 38 0;
#X connect 49 7 46 0;
#X connect 50 0 51 1;
#X connect 51 0 47 0;
#X connect 52 0 58 0;
#X connect 53 0 58 0;
#X connect 54 0 53 0;
#X connect 54 0 60 0;
#X connect 55 0 56 0;
#X connect 55 1 57 0;
#X connect 58 0 59 0;
#X connect 58 0 55 0;
#X connect 59 0 50 0;
#X connect 60 0 58 1;
