#N canvas 227 413 283 249 12;
#X floatatom 34 128 5 0 0 2 data - - 0;
#X floatatom 34 210 5 0 0 0 - - - 0;
#X floatatom 108 137 5 0 0 2 beats - - 0;
#X floatatom 71 101 5 0 0 2 BPM - - 0;
#X text 22 8 Schedule an event into the future by delaying input by
a number of (even fractional) beats.;
#X obj 34 168 sched 120 4;
#X connect 0 0 5 0;
#X connect 2 0 5 2;
#X connect 3 0 5 1;
#X connect 5 0 1 0;
