#N canvas 361 843 284 280 12;
#X obj 33 27 inlet;
#X obj 33 230 outlet~;
#X obj 33 130 synth 1000 10 1000;
#X obj 33 67 unpack f f f f f;
#X obj 33 179 panner;
#X obj 179 103 + 2;
#X obj 179 74 random 6;
#X obj 179 131 / 10;
#X msg 179 44 loadbang;
#X obj 91 230 outlet~;
#X connect 0 0 3 0;
#X connect 2 0 4 0;
#X connect 3 0 2 0;
#X connect 3 1 2 1;
#X connect 3 2 2 2;
#X connect 3 3 2 3;
#X connect 3 4 2 4;
#X connect 4 0 1 0;
#X connect 4 1 9 0;
#X connect 5 0 7 0;
#X connect 6 0 5 0;
#X connect 7 0 4 1;
#X connect 8 0 6 0;
