#N canvas 1073 266 812 500 12;
#X obj 86 114 until;
#X obj 99 197 list store;
#X obj 86 139 f;
#X obj 124 140 + 1;
#X msg 143 114 0, f 2;
#X msg 86 170 get \$1 1;
#X obj 39 11 inlet;
#X msg 101 353 append \$1;
#X msg 51 210 bang;
#X msg 208 359 bang;
#X obj 100 387 list store 1 2, f 16;
#X listbox 100 422 35 0 0 0 - - - 0;
#X obj 99 453 outlet;
#X obj 100 75 t b b b l;
#X obj 101 231 + 0;
#X obj 241 15 inlet;
#X floatatom 235 98 5 0 0 0 - - - 0;
#X obj 39 257 + 0;
#X obj 39 37 route float list;
#X obj 257 68 f \$1;
#X obj 256 39 loadbang;
#X obj 101 321 quant 0 1 2 3 4 5 6 7 8 9 10 11;
#X obj 378 15 inlet;
#X obj 553 13 loadbang;
#X obj 567 178 pack 0 0 0 0 0 0 0 0 0 0 0 0;
#X msg 343 260 set \$1 \$2 \$3 \$4 \$5 \$6 \$7 \$8 \$9 \$10 \$11 \$12
;
#X msg 342 289 0 4 7 0 0 0 0 0 0 0 0 0;
#X obj 397 203 t a b;
#N canvas 150 175 235 216 accum 0;
#X obj 24 115 f;
#X obj 80 116 +;
#X obj 40 82 t b f;
#X msg 104 82 0;
#X obj 26 16 inlet;
#X obj 26 40 route bang float;
#X obj 23 148 outlet;
#X connect 0 0 1 0;
#X connect 0 0 6 0;
#X connect 1 0 0 1;
#X connect 2 0 0 0;
#X connect 2 1 1 1;
#X connect 3 0 0 1;
#X connect 3 0 1 1;
#X connect 4 0 5 0;
#X connect 5 0 0 0;
#X connect 5 1 2 0;
#X restore 452 167 pd accum;
#X obj 396 230 spigot 0;
#X obj 565 74 f \$2;
#X obj 604 74 f \$3;
#X obj 638 74 f \$4;
#X obj 675 75 f \$5;
#X obj 568 104 f \$6;
#X obj 604 105 f \$7;
#X obj 638 105 f \$8;
#X obj 682 105 f \$9;
#X obj 558 139 f \$10;
#X obj 600 140 f \$11;
#X obj 644 138 f \$12;
#X obj 692 137 f \$13;
#X connect 0 0 2 0;
#X connect 1 0 14 0;
#X connect 1 1 0 1;
#X connect 2 0 3 0;
#X connect 2 0 5 0;
#X connect 3 0 2 1;
#X connect 4 0 2 1;
#X connect 5 0 1 0;
#X connect 6 0 18 0;
#X connect 7 0 10 0;
#X connect 8 0 10 0;
#X connect 9 0 10 1;
#X connect 10 0 11 0;
#X connect 11 0 12 0;
#X connect 13 0 8 0;
#X connect 13 1 0 0;
#X connect 13 2 4 0;
#X connect 13 2 9 0;
#X connect 13 3 1 1;
#X connect 14 0 21 0;
#X connect 15 0 16 0;
#X connect 16 0 14 1;
#X connect 16 0 17 1;
#X connect 17 0 12 0;
#X connect 18 0 17 0;
#X connect 18 1 13 0;
#X connect 19 0 16 0;
#X connect 20 0 19 0;
#X connect 21 0 7 0;
#X connect 22 0 21 1;
#X connect 23 0 26 0;
#X connect 23 0 30 0;
#X connect 23 0 31 0;
#X connect 23 0 32 0;
#X connect 23 0 33 0;
#X connect 23 0 34 0;
#X connect 23 0 35 0;
#X connect 23 0 36 0;
#X connect 23 0 37 0;
#X connect 23 0 38 0;
#X connect 23 0 39 0;
#X connect 23 0 40 0;
#X connect 23 0 41 0;
#X connect 24 0 27 0;
#X connect 25 0 26 0;
#X connect 26 0 21 1;
#X connect 27 0 29 0;
#X connect 27 1 28 0;
#X connect 28 0 29 1;
#X connect 29 0 25 0;
#X connect 30 0 24 0;
#X connect 30 0 28 0;
#X connect 31 0 24 1;
#X connect 31 0 28 0;
#X connect 32 0 24 2;
#X connect 32 0 28 0;
#X connect 33 0 24 3;
#X connect 33 0 28 0;
#X connect 34 0 24 4;
#X connect 34 0 28 0;
#X connect 35 0 24 5;
#X connect 35 0 28 0;
#X connect 36 0 24 6;
#X connect 36 0 28 0;
#X connect 37 0 24 7;
#X connect 37 0 28 0;
#X connect 38 0 24 8;
#X connect 38 0 28 0;
#X connect 39 0 24 9;
#X connect 39 0 28 0;
#X connect 40 0 24 10;
#X connect 40 0 28 0;
#X connect 41 0 24 11;
#X connect 41 0 28 0;
