#N canvas 586 423 250 167 12;
#X obj 25 20 tgl 15 0 empty empty empty 17 7 0 10 #fcfcfc #000000 #000000
0 1;
#X obj 25 40 metro 0.25 120 permin;
#X msg 47 14 60 64 67 62;
#X obj 140 14 bng 15 250 50 0 empty empty restart 17 7 0 10 #fcfcfc
#000000 #000000;
#X obj 25 88 synth 1500;
#X obj 25 64 cycle 60 100 1;
#X obj 25 112 out 0.1;
#X connect 0 0 1 0;
#X connect 1 0 5 0;
#X connect 2 0 5 1;
#X connect 4 0 6 0;
#X connect 4 0 6 1;
#X connect 5 0 4 0;
#X connect 5 1 4 1;
