#N canvas 648 240 450 300 12;
#X obj 81 34 tgl 15 0 empty empty empty 17 7 0 10 -262144 -1 -1 1 1
;
#X obj 81 54 metro 0.25 120 permin;
#X obj 81 126 out, f 5;
#X msg 103 28 60 64 67 62;
#X obj 196 28 bng 15 250 50 0 empty empty restart 17 7 0 10 -262144
-1 -1;
#X obj 81 102 synth 1500;
#X obj 81 78 cycle 60 100 1;
#X connect 0 0 1 0;
#X connect 1 0 6 0;
#X connect 3 0 6 1;
#X connect 4 0 6 6;
#X connect 5 0 2 0;
#X connect 5 0 2 1;
#X connect 6 0 5 0;
#X connect 6 1 5 1;
