#N canvas 605 407 282 343 12;
#X obj 33 308 out~ 0.1;
#X floatatom 33 136 5 0 0 0 - - - 0;
#X obj 153 14 midi 8;
#X floatatom 114 202 5 0 0 2 Release - - 0;
#X obj 33 41 tempo 120 0.25;
#X obj 33 16 tgl 15 0 empty empty Start 17 7 0 10 #fcfcfc #000000 #000000
0 1;
#X obj 33 227 polysynth~, f 12;
#X obj 33 108 f;
#X obj 33 191 change;
#X obj 124 113 periodic 12 100 20;
#X obj 33 259 echo~ 250;
#X obj 127 77 hsl 128 15 0 127 0 0 empty empty empty -2 -8 0 10 #fcfcfc
#000000 #000000 0 1;
#X floatatom 112 282 5 0 1 2 Vol - - 0;
#X obj 179 41 clip 21 93;
#X obj 33 163 quant 0 2 4 7 9;
#X connect 1 0 14 0;
#X connect 2 2 13 0;
#X connect 3 0 6 4;
#X connect 4 0 7 0;
#X connect 5 0 4 0;
#X connect 6 0 10 0;
#X connect 6 1 10 1;
#X connect 7 0 1 0;
#X connect 8 0 6 0;
#X connect 9 0 6 1;
#X connect 10 0 0 0;
#X connect 10 1 0 1;
#X connect 11 0 7 1;
#X connect 11 0 9 0;
#X connect 12 0 0 2;
#X connect 13 0 11 0;
#X connect 14 0 8 0;
