#N canvas 727 537 320 371 12;
#X obj 27 11 tgl 15 0 empty empty empty 17 7 0 10 -262144 -1 -1 1 1
;
#X obj 27 63 metro 0.25 120 permin;
#X obj 27 154 cycle 60 100 4;
#X obj 27 335 out, f 6;
#X obj 56 311 hsl 50 15 0 1 0 0 empty empty Volume -2 -8 0 10 -262144
-1 -1 400 1;
#X obj 27 273 synth 1000;
#X msg 42 122 48 52 55;
#X msg 118 121 2 1 1 1 1;
#X obj 57 181 rand 100 20;
#X floatatom 93 208 5 0 0 0 - - -;
#X floatatom 156 207 5 0 0 0 - - -;
#X obj 156 240 mtof;
#X obj 156 181 periodic 32 80 20;
#X msg 53 37 tempo \$1 permin;
#X floatatom 53 11 5 0 300 1 BPM - -;
#X msg 32 93 64 66 71 73 74 66 64 73 71 66 74 73;
#X msg 198 122 1;
#X obj 37 238 midi 100 300 1;
#X connect 0 0 1 0;
#X connect 1 0 2 0;
#X connect 2 0 5 0;
#X connect 2 0 17 0;
#X connect 2 1 8 0;
#X connect 2 3 12 0;
#X connect 4 0 3 2;
#X connect 5 0 3 0;
#X connect 5 0 3 1;
#X connect 6 0 2 1;
#X connect 7 0 2 3;
#X connect 8 1 9 0;
#X connect 9 0 5 1;
#X connect 9 0 17 1;
#X connect 10 0 11 0;
#X connect 11 0 5 2;
#X connect 12 0 10 0;
#X connect 13 0 1 0;
#X connect 14 0 13 0;
#X connect 15 0 2 1;
#X connect 16 0 2 3;
