#N canvas 648 240 309 329 12;
#X obj 21 15 tgl 15 0 empty empty empty 17 7 0 10 #fcfcfc #000000 #000000
0 1;
#X obj 22 290 out, f 5;
#X obj 174 15 bng 15 250 50 0 empty empty restart 17 7 0 10 #fcfcfc
#000000 #000000;
#X obj 21 237 synth 1500;
#X obj 21 213 cycle 60 100 1;
#X msg 52 102 100 80;
#X floatatom 84 162 5 0 1000 1 Delay_offset_in_ms - - 0;
#X msg 68 74 2 1 1 2 3 1;
#X floatatom 100 185 5 0 0 0 - - - 0;
#X floatatom 68 12 5 0 300 1 BPM - - 0;
#X obj 181 140 out, f 5;
#X msg 36 132 60 64 67 0;
#X obj 21 38 tempo 120 0.25;
#X floatatom 43 263 5 0 1 1 Vol\ 1 - - 0;
#X floatatom 202 116 5 0 1 1 Vol\ 2 - - 0;
#X obj 183 64 cycle 36 100 4;
#X obj 183 91 synth 500;
#X connect 0 0 12 0;
#X connect 2 0 4 6;
#X connect 2 0 15 6;
#X connect 3 0 1 0;
#X connect 3 0 1 1;
#X connect 4 0 3 0;
#X connect 4 1 3 1;
#X connect 5 0 4 2;
#X connect 6 0 4 4;
#X connect 7 0 4 3;
#X connect 8 0 4 5;
#X connect 9 0 12 1;
#X connect 11 0 4 1;
#X connect 12 0 4 0;
#X connect 12 0 15 0;
#X connect 13 0 1 2;
#X connect 14 0 10 2;
#X connect 15 0 16 0;
#X connect 15 1 16 1;
#X connect 16 0 10 0;
#X connect 16 0 10 1;
