#N canvas 691 384 316 374 12;
#X obj 27 11 tgl 15 0 empty empty empty 17 7 0 10 #fcfcfc #000000 #000000
0 1;
#X obj 27 154 cycle 60 100 4;
#X obj 60 310 hsl 50 15 0 1 0 0 empty empty Volume -2 -8 0 10 #fcfcfc
#000000 #000000 0 1;
#X obj 27 273 synth 1000;
#X msg 46 122 48 52 55;
#X msg 118 121 2 1 1 1 1;
#X obj 57 181 rand 100 20;
#X floatatom 93 208 5 0 0 0 - - - 0;
#X floatatom 156 207 5 0 0 0 - - - 0;
#X obj 156 240 mtof;
#X obj 156 181 periodic 32 80 20;
#X floatatom 74 21 5 0 300 1 BPM - - 0;
#X msg 35 93 64 66 71 73 74 66 64 73 71 66 74 73;
#X msg 198 122 1;
#X obj 37 238 midi 100 300 1;
#X obj 27 49 tempo 120 0.25;
#X obj 27 335 out 0.1;
#X text 47 71 Click messgae boxes;
#X connect 0 0 15 0;
#X connect 1 0 3 0;
#X connect 1 0 14 0;
#X connect 1 1 6 0;
#X connect 1 4 10 0;
#X connect 2 0 16 2;
#X connect 3 0 16 0;
#X connect 3 0 16 1;
#X connect 4 0 1 1;
#X connect 5 0 1 3;
#X connect 6 1 7 0;
#X connect 7 0 3 1;
#X connect 7 0 14 1;
#X connect 8 0 9 0;
#X connect 9 0 3 2;
#X connect 10 0 8 0;
#X connect 11 0 15 1;
#X connect 12 0 1 1;
#X connect 13 0 1 3;
#X connect 15 0 1 0;
