#N canvas 648 240 409 233 12;
#X obj 21 85 tgl 15 0 empty empty empty 17 7 0 10 -262144 -1 -1 1 1
;
#X obj 21 105 metro 0.25 120 permin;
#X obj 21 177 out, f 5;
#X obj 136 79 bng 15 250 50 0 empty empty restart 17 7 0 10 -262144
-1 -1;
#X obj 21 153 synth 1500;
#X obj 21 129 cycle 60 100 1;
#X msg 53 48 100 80;
#X floatatom 219 84 5 0 1000 1 Delay_offset_in_ms - -;
#X msg 110 47 2 1 1 2 3 1;
#X floatatom 145 15 5 0 0 0 - - -;
#X msg 212 47 tempo \$1 permin;
#X floatatom 212 15 5 0 300 1 BPM - -;
#X obj 197 177 out, f 5;
#X obj 197 153 synth 1500;
#X obj 197 129 cycle 60 100 4;
#X msg 43 79 60 64 67 0;
#X connect 0 0 1 0;
#X connect 1 0 5 0;
#X connect 1 0 14 0;
#X connect 3 0 5 6;
#X connect 3 0 14 6;
#X connect 4 0 2 0;
#X connect 4 0 2 1;
#X connect 5 0 4 0;
#X connect 5 1 4 1;
#X connect 6 0 5 2;
#X connect 7 0 5 4;
#X connect 8 0 5 3;
#X connect 9 0 5 5;
#X connect 10 0 1 0;
#X connect 11 0 10 0;
#X connect 13 0 12 0;
#X connect 13 0 12 1;
#X connect 14 0 13 0;
#X connect 14 1 13 1;
#X connect 15 0 5 1;
