#N canvas 648 240 309 329 12;
#X obj 21 15 tgl 15 0 empty empty empty 17 7 0 10 #fcfcfc #000000 #000000
0 1;
#X obj 21 243 synth 1500;
#X obj 21 219 cycle 60 100 1;
#X msg 59 130 100 80;
#X floatatom 97 186 5 0 1000 1 Delay_offset_in_ms - - 0;
#X msg 78 101 2 1 1 2 3 1;
#X floatatom 68 12 5 0 300 1 BPM - - 0;
#X msg 40 159 60 64 67 0;
#X obj 21 38 tempo 120 0.25;
#X floatatom 51 269 5 0 1 1 Vol\ 1 - - 0;
#X floatatom 211 133 5 0 1 1 Vol\ 2 - - 0;
#X obj 183 81 cycle 36 100 4;
#X obj 183 108 synth 500;
#X obj 181 157 out 0.1;
#X obj 21 296 out 0.1;
#X text 30 78 Click message boxes;
#X connect 0 0 8 0;
#X connect 1 0 14 0;
#X connect 1 0 14 1;
#X connect 2 0 1 0;
#X connect 2 1 1 1;
#X connect 3 0 2 2;
#X connect 4 0 2 4;
#X connect 5 0 2 3;
#X connect 6 0 8 1;
#X connect 7 0 2 1;
#X connect 8 0 2 0;
#X connect 8 0 11 0;
#X connect 8 2 2 5;
#X connect 8 2 11 5;
#X connect 9 0 14 2;
#X connect 10 0 13 2;
#X connect 11 0 12 0;
#X connect 11 1 12 1;
#X connect 12 0 13 0;
#X connect 12 0 13 1;
