#N canvas 150 175 262 272 12;
#X obj 42 18 tgl 15 0 empty empty empty 17 7 0 10 #c4fcc4 #000000 #000000 0 1;
#X obj 42 208 midi, f 6;
#X obj 142 78 bng 15 250 50 0 empty empty Reset\ phase 17 7 0 10 #fce0c4 #000000 #000000;
#X obj 42 182 quant 0 2 4 5 7 9 11;
#X obj 42 155 periodic 16 60 4;
#X obj 42 131 periodic 32 60 12;
#X obj 42 47 tempo 114 0.25;
#X obj 42 102 cycle 0 100 1;
#X connect 0 0 6 0;
#X connect 3 0 1 0;
#X connect 4 0 3 0;
#X connect 5 0 4 0;
#X connect 6 0 7 0;
#X connect 7 1 1 1;
#X connect 7 4 5 0;
