#N canvas 739 272 242 162 12;
#X obj 41 19 tgl 15 0 empty empty empty 17 7 0 10 #fcfcfc #000000 #000000
0 1;
#X obj 41 63 cycle 60 100 4;
#X obj 41 87 midi;
#X obj 41 39 tempo 120 0.25;
#X connect 0 0 3 0;
#X connect 1 0 2 0;
#X connect 3 0 1 0;
#X connect 3 2 1 5;
