#N canvas 739 272 288 170 12;
#X obj 35 18 tgl 15 0 empty empty empty 17 7 0 10 #fcfcfc #000000 #000000
0 1;
#X obj 35 66 cycle 60 100 4;
#X obj 35 114 out, f 5;
#X obj 35 90 synth, f 7;
#X obj 35 42 tempo 120 0.25;
#X connect 0 0 4 0;
#X connect 1 0 3 0;
#X connect 3 0 2 0;
#X connect 3 0 2 1;
#X connect 4 0 1 0;
