#N canvas 739 272 450 300 12;
#X obj 81 34 tgl 15 0 empty empty empty 17 7 0 10 -262144 -1 -1 1 1
;
#X obj 81 54 metro 0.25 120 permin;
#X obj 81 78 cycle 60 100 4;
#X obj 81 126 out, f 5;
#X obj 81 102 synth, f 7;
#X connect 0 0 1 0;
#X connect 1 0 2 0;
#X connect 2 0 4 0;
#X connect 4 0 3 0;
