#N canvas 461 231 491 322 12;
#X obj 29 26 tgl 15 0 empty empty empty 17 7 0 10 #fcfcfc #000000 #000000
0 1;
#X obj 29 70 cycle, f 10;
#X obj 68 173 mod 4;
#X obj 68 202 sel 3;
#X obj 95 124 bng 15 250 50 0 empty empty empty 17 7 0 10 #fcfcfc #000000
#000000;
#X obj 120 173 random 10;
#X obj 120 123 bng 15 250 50 0 empty empty empty 17 7 0 10 #fcfcfc
#000000 #000000;
#X msg 120 231 0;
#X obj 120 200 sel 0 2;
#X msg 68 229 1;
#X msg 155 231 2;
#X obj 144 123 bng 15 250 50 0 empty empty empty 17 7 0 10 #fcfcfc
#000000 #000000;
#X obj 93 270 s next;
#X obj 135 71 r next;
#X obj 207 147 f;
#X obj 241 148 + 1;
#X obj 208 203 sel 7;
#X msg 208 231 1;
#X msg 225 121 0;
#X floatatom 259 204 5 0 0 0 - - - 0;
#X obj 96 95 direct;
#X msg 328 145 36;
#X obj 328 118 r k;
#X obj 90 147 s k;
#X obj 129 147 s s;
#X obj 163 147 s h;
#X obj 367 117 r s;
#X msg 367 144 38;
#X msg 408 145 42;
#X obj 408 118 r h;
#X obj 29 46 tempo 120 0.25;
#X obj 383 226 hsl 64 15 0 1 0 1 empty empty Vol -2 -8 0 10 #fcfcfc
#000000 #000000 6300 1;
#X text 147 95 Uses 'direct' to create a transition network;
#X obj 345 252 out~ 0.1;
#X obj 351 181 drums~, f 9;
#X connect 0 0 30 0;
#X connect 1 4 20 0;
#X connect 2 0 3 0;
#X connect 3 0 9 0;
#X connect 4 0 23 0;
#X connect 5 0 8 0;
#X connect 6 0 5 0;
#X connect 6 0 24 0;
#X connect 7 0 12 0;
#X connect 8 0 7 0;
#X connect 8 1 10 0;
#X connect 9 0 12 0;
#X connect 10 0 12 0;
#X connect 11 0 14 0;
#X connect 11 0 25 0;
#X connect 13 0 20 1;
#X connect 14 0 15 0;
#X connect 14 0 16 0;
#X connect 14 0 19 0;
#X connect 15 0 14 1;
#X connect 16 0 17 0;
#X connect 16 0 18 0;
#X connect 17 0 12 0;
#X connect 18 0 14 1;
#X connect 20 0 4 0;
#X connect 20 0 2 0;
#X connect 20 1 6 0;
#X connect 20 2 11 0;
#X connect 21 0 34 0;
#X connect 22 0 21 0;
#X connect 26 0 27 0;
#X connect 27 0 34 1;
#X connect 28 0 34 2;
#X connect 29 0 28 0;
#X connect 30 0 1 0;
#X connect 31 0 33 2;
#X connect 34 0 33 0;
#X connect 34 0 33 1;
