#N canvas 1133 159 384 284 12;
#X obj 29 26 tgl 15 0 empty empty empty 17 7 0 10 -262144 -1 -1 0 1
;
#X obj 29 46 metro 0.25 120 permin;
#X obj 29 70 cycle, f 10;
#X obj 68 145 mod 4;
#X obj 68 174 sel 3;
#X obj 95 124 bng 15 250 50 0 empty empty empty 17 7 0 10 -262144 -1
-1;
#X obj 120 145 random 10;
#X obj 120 123 bng 15 250 50 0 empty empty empty 17 7 0 10 -262144
-1 -1;
#X msg 120 203 0;
#X obj 120 172 sel 0 2;
#X msg 68 201 1;
#X msg 155 203 2;
#X obj 144 123 bng 15 250 50 0 empty empty empty 17 7 0 10 -262144
-1 -1;
#X obj 93 242 s next;
#X obj 135 71 r next;
#X obj 208 145 f;
#X obj 242 146 + 1;
#X obj 208 174 sel 7;
#X msg 208 202 1;
#X msg 226 119 0;
#X floatatom 259 175 5 0 0 0 - - -;
#X text 54 22 Use 'direct' to create a transition network;
#X obj 96 95 direct;
#X connect 0 0 1 0;
#X connect 1 0 2 0;
#X connect 2 4 22 0;
#X connect 3 0 4 0;
#X connect 4 0 10 0;
#X connect 6 0 9 0;
#X connect 7 0 6 0;
#X connect 8 0 13 0;
#X connect 9 0 8 0;
#X connect 9 1 11 0;
#X connect 10 0 13 0;
#X connect 11 0 13 0;
#X connect 12 0 15 0;
#X connect 14 0 22 1;
#X connect 15 0 16 0;
#X connect 15 0 17 0;
#X connect 15 0 20 0;
#X connect 16 0 15 1;
#X connect 17 0 18 0;
#X connect 17 0 19 0;
#X connect 18 0 13 0;
#X connect 19 0 15 1;
#X connect 22 0 5 0;
#X connect 22 0 3 0;
#X connect 22 1 7 0;
#X connect 22 2 12 0;
